<?xml version="1.0" encoding="utf-8"?>
<!-- Generator: Adobe Illustrator 16.0.0, SVG Export Plug-In . SVG Version: 6.00 Build 0)  -->
<!DOCTYPE svg PUBLIC "-//W3C//DTD SVG 1.1//EN" "http://www.w3.org/Graphics/SVG/1.1/DTD/svg11.dtd">
<svg version="1.1" id="Layer_1" xmlns="http://www.w3.org/2000/svg" xmlns:xlink="http://www.w3.org/1999/xlink" x="0px" y="0px"
	 width="1087.229px" height="608.833px" viewBox="-210.383 0 1087.229 608.833"
	 enable-background="new -210.383 0 1087.229 608.833" xml:space="preserve">
<g>
	<g>
		<path fill="#FAD4E0" d="M312.121,112.833c-3.324,0.008-6.492,0.675-9.396,1.862c5.967,6.171,9.441,14.425,9.441,23.138
			c0,17.347-13.015,31.608-30.273,33.174l-13.237,2.455c-6.008,1.991-11.462,5.149-16.208,9.408
			c-0.792,0.708-1.788,1.062-2.779,1.062c-0.996,0-1.992-0.354-2.783-1.062c-4.746-4.254-10.196-7.417-16.208-9.404l-13.617-2.513
			c-16.879-1.514-29.892-15.773-29.892-33.121c0-18.379,14.954-33.333,33.333-33.333c7.842,0,15.175,2.633,21.204,7.617l7.962,6.575
			l7.962-6.579c4.971-4.104,10.83-6.587,17.129-7.341c2.733-3.087,5.812-5.863,9.225-8.205c-11.171-1.304-22.888,1.871-31.663,9.121
			c-1.538,1.279-3.767,1.279-5.304,0c-7.438-6.138-16.854-9.521-26.517-9.521c-22.975,0-41.667,18.692-41.667,41.667
			c0,21.688,16.275,39.517,37.854,41.472c0.35,0.032,0.688,0.104,1.008,0.221c13.917,0.5,25.929,8.621,31.971,20.305
			c6.05-11.7,18.079-19.825,32.021-20.305c0.304-0.112,0.625-0.188,0.958-0.221c21.58-1.955,37.855-19.783,37.855-41.472
			C320.5,128.805,317.518,120.017,312.121,112.833z"/>
		<path fill="#FAD4E0" d="M349.666,53.191c1.852-2.783,4.246-5.175,7.025-7.025c-2.779-1.85-5.176-4.246-7.025-7.025
			c-1.85,2.779-4.244,5.175-7.027,7.025C345.422,48.017,347.816,50.413,349.666,53.191z"/>
		<path fill="#FAD4E0" d="M195.5,244.861c1.85-2.782,4.246-5.178,7.025-7.027c-2.779-1.852-5.175-4.246-7.025-7.029
			c-1.85,2.783-4.246,5.18-7.029,7.029C191.254,239.684,193.65,242.079,195.5,244.861z"/>
		<path fill="#FAD4E0" d="M370.5,96.167c-9.662,0-19.078,3.383-26.514,9.521c-1.535,1.279-3.766,1.279-5.303,0
			c-7.438-6.138-16.854-9.521-26.52-9.521c-22.974,0-41.666,18.692-41.666,41.667c0,9.129,3.054,18.016,8.571,25.236l1.692-0.313
			c2.621-0.24,5.05-0.939,7.35-1.859c-5.871-6.131-9.279-14.349-9.279-23.063c0-18.379,14.954-33.333,33.333-33.333
			c7.842,0,15.176,2.633,21.205,7.617l7.963,6.575l7.961-6.579c6.031-4.982,13.363-7.615,21.205-7.615
			c18.379,0,33.334,14.954,33.334,33.333c0,17.347-13.018,31.608-30.275,33.174l-13.238,2.455
			c-6.008,1.991-11.461,5.149-16.205,9.408c-0.795,0.708-1.787,1.062-2.779,1.062c-0.996,0-1.992-0.354-2.783-1.062
			c-4.744-4.254-10.195-7.417-16.209-9.404l-7.092-1.309c-2.443,2.596-5.17,4.926-8.139,6.944c0.416,0.051,0.82,0.164,1.236,0.2
			c0.354,0.033,0.689,0.104,1.01,0.222c13.916,0.5,25.93,8.621,31.973,20.305c6.049-11.7,18.078-19.825,32.02-20.305
			c0.307-0.112,0.625-0.188,0.959-0.222c21.582-1.954,37.857-19.782,37.857-41.471C412.168,114.858,393.475,96.167,370.5,96.167z"/>
		<path fill="#FAD4E0" d="M370.5,87.833c-10.475,0-20.709,3.312-29.166,9.387c-8.459-6.075-18.691-9.387-29.168-9.387
			c-5.857,0-11.457,1.066-16.683,2.925c-15.125-5.325-32.729-2.938-45.817,6.462c-8.458-6.075-18.691-9.387-29.167-9.387
			c-27.571,0-50,22.429-50,50c0,25.587,18.879,46.7,44.129,49.638c0.521,0.232,1.096,0.362,1.704,0.362
			C232.417,187.834,245.5,200.921,245.5,217c0,2.305,1.867,4.166,4.167,4.166s4.167-1.861,4.167-4.166
			c0-16.079,13.083-29.166,29.167-29.166c0.562,0,1.104-0.125,1.596-0.352c3.833-0.438,7.5-1.342,11-2.57
			c3.471,1.221,7.045,2.125,10.699,2.555c0.521,0.237,1.096,0.367,1.705,0.367c16.084,0,29.166,13.087,29.166,29.166
			c0,2.305,1.867,4.166,4.168,4.166c2.299,0,4.166-1.861,4.166-4.166c0-16.079,13.084-29.166,29.166-29.166
			c0.561,0,1.104-0.125,1.596-0.352c25.307-2.888,44.238-24.028,44.238-49.649C420.5,110.263,398.072,87.833,370.5,87.833z
			 M282.646,179.305c-0.333,0.033-0.654,0.104-0.958,0.221c-13.938,0.479-25.967,8.604-32.021,20.306
			c-6.042-11.685-18.054-19.806-31.971-20.306c-0.321-0.111-0.658-0.188-1.008-0.221c-21.579-1.955-37.854-19.783-37.854-41.471
			c0-22.975,18.691-41.667,41.667-41.667c9.663,0,19.079,3.383,26.513,9.521c1.537,1.279,3.767,1.279,5.304,0
			c8.775-7.25,20.496-10.425,31.662-9.121c-3.412,2.338-6.492,5.113-9.225,8.205c-6.296,0.754-12.159,3.237-17.129,7.341
			l-7.958,6.579l-7.962-6.575c-6.031-4.984-13.364-7.617-21.206-7.617c-18.379,0-33.333,14.954-33.333,33.333
			c0,17.347,13.013,31.608,29.896,33.121l13.617,2.513c6.008,1.987,11.458,5.146,16.208,9.404c0.792,0.708,1.787,1.063,2.783,1.063
			s1.987-0.354,2.779-1.063c4.746-4.254,10.2-7.417,16.208-9.408l13.238-2.455c17.254-1.566,30.27-15.828,30.27-33.174
			c0-8.712-3.475-16.967-9.438-23.138c2.898-1.188,6.07-1.854,9.396-1.862c5.391,7.183,8.375,15.971,8.375,25
			C320.5,159.521,304.225,177.35,282.646,179.305z M267.425,115.646c-3.333,6.696-5.258,14.211-5.258,22.188
			c0,9.563,2.8,18.904,7.909,26.895l-3.205,0.592c-0.179,0.033-0.354,0.08-0.529,0.136c-6.075,1.971-11.671,4.948-16.675,8.875
			c-5.004-3.927-10.6-6.904-16.675-8.875c-0.175-0.06-0.35-0.103-0.529-0.136l-14.271-2.609
			c-12.938-1.178-22.692-11.873-22.692-24.878c0-13.788,11.212-25,25-25c5.883,0,11.379,1.975,15.896,5.708l10.617,8.768
			c1.537,1.278,3.767,1.278,5.304,0l10.616-8.768C264.337,117.383,265.854,116.458,267.425,115.646z M295.518,119.233
			c5.254,4.721,8.316,11.479,8.316,18.6c0,7.417-3.242,14.004-8.438,18.591c-5.2-4.683-8.229-11.425-8.229-18.591
			C287.167,130.445,290.409,123.816,295.518,119.233z M323.596,115.658c1.563,0.809,3.076,1.733,4.467,2.883l10.617,8.768
			c1.537,1.278,3.766,1.278,5.305,0l10.615-8.768c4.521-3.733,10.02-5.708,15.9-5.708c13.787,0,25,11.212,25,25
			c0,13.004-9.754,23.7-23.07,24.924l-13.893,2.56c-0.18,0.033-0.354,0.08-0.529,0.135c-6.074,1.971-11.67,4.949-16.674,8.875
			c-5.004-3.926-10.602-6.904-16.676-8.875c-0.176-0.061-0.35-0.102-0.529-0.135l-3.1-0.569c4.941-7.771,7.805-16.996,7.805-26.913
			C328.834,130.096,326.986,122.513,323.596,115.658z M374.313,179.305c-0.334,0.033-0.654,0.104-0.959,0.221
			c-13.938,0.479-25.973,8.604-32.021,20.306c-6.043-11.685-18.057-19.806-31.973-20.306c-0.32-0.111-0.656-0.188-1.01-0.221
			c-0.416-0.037-0.818-0.149-1.234-0.201c2.967-2.02,5.689-4.35,8.137-6.943l7.094,1.309c6.012,1.987,11.463,5.146,16.209,9.404
			c0.791,0.708,1.785,1.063,2.781,1.063s1.986-0.354,2.779-1.063c4.744-4.254,10.197-7.417,16.207-9.408l13.236-2.455
			c17.254-1.564,30.271-15.826,30.271-33.174c0-18.379-14.953-33.333-33.332-33.333c-7.844,0-15.176,2.633-21.205,7.612
			l-7.961,6.579l-7.963-6.575c-6.029-4.983-13.363-7.617-21.205-7.617c-18.378,0-33.333,14.954-33.333,33.333
			c0,8.716,3.408,16.935,9.275,23.062c-2.3,0.92-4.725,1.621-7.35,1.861l-1.692,0.313c-5.512-7.221-8.566-16.107-8.566-25.237
			c0-22.975,18.692-41.667,41.667-41.667c9.662,0,19.078,3.383,26.514,9.521c1.537,1.279,3.766,1.279,5.303,0
			c7.439-6.138,16.855-9.521,26.52-9.521c22.975,0,41.666,18.692,41.666,41.667C412.168,159.521,395.893,177.35,374.313,179.305z"/>
		<path fill="#FAD4E0" d="M328.834,50.333c9.191,0,16.666,7.475,16.666,16.667c0,2.304,1.867,4.167,4.166,4.167
			c2.301,0,4.168-1.862,4.168-4.167c0-9.192,7.475-16.667,16.666-16.667c2.301,0,4.166-1.863,4.166-4.167S372.801,42,370.5,42
			c-9.191,0-16.666-7.475-16.666-16.667c0-2.304-1.867-4.167-4.168-4.167c-2.299,0-4.166,1.863-4.166,4.167
			c0,9.192-7.475,16.667-16.666,16.667c-2.301,0-4.168,1.862-4.168,4.167S326.533,50.333,328.834,50.333z M349.666,39.142
			c1.852,2.783,4.246,5.175,7.025,7.025c-2.783,1.85-5.176,4.246-7.025,7.025c-1.85-2.783-4.244-5.175-7.027-7.025
			C345.422,44.316,347.816,41.921,349.666,39.142z"/>
		<path fill="#FAD4E0" d="M216.333,233.666c-9.192,0-16.667-7.475-16.667-16.666c0-2.305-1.867-4.166-4.167-4.166
			s-4.167,1.861-4.167,4.166c0,9.191-7.475,16.666-16.667,16.666c-2.3,0-4.167,1.863-4.167,4.168s1.867,4.166,4.167,4.166
			c9.192,0,16.667,7.475,16.667,16.666c0,2.305,1.867,4.168,4.167,4.168s4.167-1.863,4.167-4.168
			c0-9.191,7.475-16.666,16.667-16.666c2.3,0,4.167-1.861,4.167-4.166S218.633,233.666,216.333,233.666z M195.5,244.861
			c-1.85-2.782-4.246-5.178-7.029-7.027c2.784-1.852,5.179-4.246,7.029-7.029c1.85,2.783,4.246,5.18,7.025,7.029
			C199.747,239.684,197.351,242.079,195.5,244.861z"/>
		<rect x="378.834" y="217" fill="#FAD4E0" width="8.332" height="8.334"/>
		<rect x="241.333" y="62.833" fill="#FAD4E0" width="8.333" height="8.333"/>
		<rect x="203.833" y="29.5" fill="#FAD4E0" width="8.333" height="8.333"/>
		<rect x="283" y="237.834" fill="#FAD4E0" width="8.333" height="8.332"/>
		<rect x="303.834" y="25.333" fill="#FAD4E0" width="8.332" height="8.333"/>
		<rect x="399.668" y="25.333" fill="#FAD4E0" width="8.332" height="8.333"/>
	</g>
	<g>
		<g>
			<path fill="#FF2869" d="M312.121,95.833c-3.324,0.008-6.492,0.675-9.396,1.862c5.967,6.171,9.441,14.425,9.441,23.138
				c0,17.347-13.015,31.608-30.273,33.174l-13.237,2.455c-6.008,1.991-11.462,5.149-16.208,9.408
				c-0.792,0.708-1.788,1.062-2.779,1.062c-0.996,0-1.992-0.354-2.783-1.062c-4.746-4.254-10.196-7.417-16.208-9.404l-13.617-2.513
				c-16.879-1.514-29.892-15.773-29.892-33.121c0-18.379,14.954-33.333,33.333-33.333c7.842,0,15.175,2.633,21.204,7.617
				l7.962,6.575l7.962-6.579c4.971-4.104,10.83-6.587,17.129-7.341c2.733-3.087,5.812-5.863,9.225-8.205
				c-11.171-1.304-22.888,1.871-31.663,9.121c-1.538,1.279-3.767,1.279-5.304,0c-7.438-6.138-16.854-9.521-26.517-9.521
				c-22.975,0-41.667,18.692-41.667,41.667c0,21.688,16.275,39.517,37.854,41.472c0.35,0.032,0.688,0.104,1.008,0.221
				c13.917,0.5,25.929,8.621,31.971,20.305c6.05-11.7,18.079-19.825,32.021-20.305c0.304-0.112,0.625-0.188,0.958-0.221
				c21.58-1.955,37.855-19.783,37.855-41.472C320.5,111.804,317.518,103.017,312.121,95.833z"/>
			<g>
				<path fill="#FFFFFF" d="M349.666,36.191c1.852-2.783,4.246-5.175,7.025-7.025c-2.779-1.85-5.176-4.246-7.025-7.025
					c-1.85,2.779-4.244,5.175-7.027,7.025C345.422,31.017,347.816,33.413,349.666,36.191z"/>
				<path fill="#FFFFFF" d="M195.5,227.861c1.85-2.782,4.246-5.178,7.025-7.027c-2.779-1.852-5.175-4.246-7.025-7.029
					c-1.85,2.783-4.246,5.18-7.029,7.029C191.254,222.684,193.65,225.079,195.5,227.861z"/>
			</g>
			<path fill="#9B41EB" d="M370.5,79.167c-9.662,0-19.078,3.383-26.514,9.521c-1.535,1.279-3.766,1.279-5.303,0
				c-7.438-6.138-16.854-9.521-26.52-9.521c-22.974,0-41.666,18.692-41.666,41.667c0,9.129,3.054,18.016,8.571,25.236l1.692-0.313
				c2.621-0.24,5.05-0.939,7.35-1.859c-5.871-6.131-9.279-14.349-9.279-23.063c0-18.379,14.954-33.333,33.333-33.333
				c7.842,0,15.176,2.633,21.205,7.617l7.963,6.575l7.961-6.579c6.031-4.982,13.363-7.615,21.205-7.615
				c18.379,0,33.334,14.954,33.334,33.333c0,17.347-13.018,31.608-30.275,33.174l-13.238,2.455
				c-6.008,1.991-11.461,5.149-16.205,9.408c-0.795,0.708-1.787,1.062-2.779,1.062c-0.996,0-1.992-0.354-2.783-1.062
				c-4.744-4.254-10.195-7.417-16.209-9.404l-7.092-1.309c-2.443,2.596-5.17,4.926-8.139,6.944c0.416,0.051,0.82,0.164,1.236,0.2
				c0.354,0.033,0.689,0.104,1.01,0.222c13.916,0.5,25.93,8.621,31.973,20.305c6.049-11.7,18.078-19.825,32.02-20.305
				c0.307-0.112,0.625-0.188,0.959-0.222c21.582-1.954,37.857-19.782,37.857-41.471C412.168,97.858,393.475,79.167,370.5,79.167z"/>
			<path fill="#11141A" d="M370.5,70.833c-10.475,0-20.709,3.312-29.166,9.387c-8.459-6.075-18.691-9.387-29.168-9.387
				c-5.857,0-11.457,1.066-16.683,2.925c-15.125-5.325-32.729-2.938-45.817,6.462c-8.458-6.075-18.691-9.387-29.167-9.387
				c-27.571,0-50,22.429-50,50c0,25.587,18.879,46.7,44.129,49.638c0.521,0.232,1.096,0.362,1.704,0.362
				C232.417,170.834,245.5,183.921,245.5,200c0,2.305,1.867,4.166,4.167,4.166s4.167-1.861,4.167-4.166
				c0-16.079,13.083-29.166,29.167-29.166c0.562,0,1.104-0.125,1.596-0.352c3.833-0.438,7.5-1.342,11-2.57
				c3.471,1.221,7.045,2.125,10.699,2.555c0.521,0.237,1.096,0.367,1.705,0.367c16.084,0,29.166,13.087,29.166,29.166
				c0,2.305,1.867,4.166,4.168,4.166c2.299,0,4.166-1.861,4.166-4.166c0-16.079,13.084-29.166,29.166-29.166
				c0.561,0,1.104-0.125,1.596-0.352c25.307-2.888,44.238-24.028,44.238-49.649C420.5,93.263,398.072,70.833,370.5,70.833z
				 M282.646,162.305c-0.333,0.033-0.654,0.104-0.958,0.221c-13.938,0.479-25.967,8.604-32.021,20.306
				c-6.042-11.685-18.054-19.806-31.971-20.306c-0.321-0.111-0.658-0.188-1.008-0.221c-21.579-1.955-37.854-19.783-37.854-41.471
				c0-22.975,18.691-41.667,41.667-41.667c9.663,0,19.079,3.383,26.513,9.521c1.537,1.279,3.767,1.279,5.304,0
				c8.775-7.25,20.496-10.425,31.662-9.121c-3.412,2.338-6.492,5.113-9.225,8.205c-6.296,0.754-12.159,3.237-17.129,7.341
				l-7.958,6.579l-7.962-6.575c-6.031-4.984-13.364-7.617-21.206-7.617c-18.379,0-33.333,14.954-33.333,33.333
				c0,17.347,13.013,31.608,29.896,33.121l13.617,2.513c6.008,1.987,11.458,5.146,16.208,9.404c0.792,0.708,1.787,1.063,2.783,1.063
				s1.987-0.354,2.779-1.063c4.746-4.254,10.2-7.417,16.208-9.408l13.238-2.455c17.254-1.566,30.27-15.828,30.27-33.174
				c0-8.712-3.475-16.967-9.438-23.138c2.898-1.188,6.07-1.854,9.396-1.862c5.391,7.183,8.375,15.971,8.375,25
				C320.5,142.521,304.225,160.35,282.646,162.305z M267.425,98.646c-3.333,6.696-5.258,14.212-5.258,22.188
				c0,9.563,2.8,18.904,7.909,26.895l-3.205,0.592c-0.179,0.033-0.354,0.08-0.529,0.136c-6.075,1.971-11.671,4.948-16.675,8.875
				c-5.004-3.927-10.6-6.904-16.675-8.875c-0.175-0.06-0.35-0.103-0.529-0.136l-14.271-2.609
				c-12.938-1.178-22.692-11.873-22.692-24.878c0-13.788,11.212-25,25-25c5.883,0,11.379,1.975,15.896,5.708l10.617,8.767
				c1.537,1.279,3.767,1.279,5.304,0l10.616-8.767C264.337,100.383,265.854,99.458,267.425,98.646z M295.518,102.233
				c5.254,4.721,8.316,11.479,8.316,18.6c0,7.417-3.242,14.004-8.438,18.591c-5.2-4.683-8.229-11.425-8.229-18.591
				C287.167,113.446,290.409,106.816,295.518,102.233z M323.596,98.658c1.563,0.809,3.076,1.733,4.467,2.883l10.617,8.767
				c1.537,1.279,3.766,1.279,5.305,0l10.615-8.767c4.521-3.733,10.02-5.708,15.9-5.708c13.787,0,25,11.212,25,25
				c0,13.004-9.754,23.7-23.07,24.924l-13.893,2.56c-0.18,0.033-0.354,0.08-0.529,0.135c-6.074,1.971-11.67,4.949-16.674,8.875
				c-5.004-3.926-10.602-6.904-16.676-8.875c-0.176-0.061-0.35-0.102-0.529-0.135l-3.1-0.569c4.941-7.771,7.805-16.996,7.805-26.913
				C328.834,113.096,326.986,105.513,323.596,98.658z M374.313,162.305c-0.334,0.033-0.654,0.104-0.959,0.221
				c-13.938,0.479-25.973,8.604-32.021,20.306c-6.043-11.685-18.057-19.806-31.973-20.306c-0.32-0.111-0.656-0.188-1.01-0.221
				c-0.416-0.037-0.818-0.149-1.234-0.201c2.967-2.02,5.689-4.35,8.137-6.943l7.094,1.309c6.012,1.987,11.463,5.146,16.209,9.404
				c0.791,0.708,1.785,1.063,2.781,1.063s1.986-0.354,2.779-1.063c4.744-4.254,10.197-7.417,16.207-9.408l13.236-2.455
				c17.254-1.564,30.271-15.826,30.271-33.174c0-18.379-14.953-33.333-33.332-33.333c-7.844,0-15.176,2.633-21.205,7.612
				l-7.961,6.579l-7.963-6.575c-6.029-4.983-13.363-7.617-21.205-7.617c-18.378,0-33.333,14.954-33.333,33.333
				c0,8.716,3.408,16.935,9.275,23.062c-2.3,0.92-4.725,1.621-7.35,1.861l-1.692,0.313c-5.512-7.221-8.566-16.107-8.566-25.237
				c0-22.975,18.692-41.667,41.667-41.667c9.662,0,19.078,3.383,26.514,9.521c1.537,1.279,3.766,1.279,5.303,0
				c7.439-6.138,16.855-9.521,26.52-9.521c22.975,0,41.666,18.692,41.666,41.667C412.168,142.521,395.893,160.35,374.313,162.305z"
				/>
			<path fill="#11141A" d="M328.834,33.333c9.191,0,16.666,7.475,16.666,16.667c0,2.304,1.867,4.167,4.166,4.167
				c2.301,0,4.168-1.862,4.168-4.167c0-9.192,7.475-16.667,16.666-16.667c2.301,0,4.166-1.863,4.166-4.167S372.801,25,370.5,25
				c-9.191,0-16.666-7.475-16.666-16.667c0-2.304-1.867-4.167-4.168-4.167c-2.299,0-4.166,1.863-4.166,4.167
				c0,9.192-7.475,16.667-16.666,16.667c-2.301,0-4.168,1.862-4.168,4.167S326.533,33.333,328.834,33.333z M349.666,22.142
				c1.852,2.783,4.246,5.175,7.025,7.025c-2.783,1.85-5.176,4.246-7.025,7.025c-1.85-2.783-4.244-5.175-7.027-7.025
				C345.422,27.316,347.816,24.921,349.666,22.142z"/>
			<path fill="#11141A" d="M216.333,216.666c-9.192,0-16.667-7.475-16.667-16.666c0-2.305-1.867-4.166-4.167-4.166
				s-4.167,1.861-4.167,4.166c0,9.191-7.475,16.666-16.667,16.666c-2.3,0-4.167,1.863-4.167,4.168s1.867,4.166,4.167,4.166
				c9.192,0,16.667,7.475,16.667,16.666c0,2.305,1.867,4.168,4.167,4.168s4.167-1.863,4.167-4.168
				c0-9.191,7.475-16.666,16.667-16.666c2.3,0,4.167-1.861,4.167-4.166S218.633,216.666,216.333,216.666z M195.5,227.861
				c-1.85-2.782-4.246-5.178-7.029-7.027c2.784-1.852,5.179-4.246,7.029-7.029c1.85,2.783,4.246,5.18,7.025,7.029
				C199.747,222.684,197.351,225.079,195.5,227.861z"/>
			<rect x="378.834" y="200" fill="#11141A" width="8.332" height="8.334"/>
			<rect x="241.333" y="45.833" fill="#11141A" width="8.333" height="8.333"/>
			<rect x="203.833" y="12.5" fill="#11141A" width="8.333" height="8.333"/>
			<rect x="283" y="220.834" fill="#11141A" width="8.333" height="8.332"/>
			<rect x="303.834" y="8.333" fill="#11141A" width="8.332" height="8.333"/>
			<rect x="399.668" y="8.333" fill="#11141A" width="8.332" height="8.333"/>
		</g>
	</g>
</g>
<g>
	<g>
		<path fill="#FAD4E0" d="M-194.763,371.683c-2.86,0-15.62-1.76-15.62-5.72c0-7.04,29.92-30.8,37.621-30.8
			c1.1,0,1.32,0.439,1.32,0.88c-3.08,1.979-22.66,29.92-22.66,35.2C-194.103,371.683-194.322,371.683-194.763,371.683z
			 M-169.462,371.683c-3.08,0-15.84-1.76-15.84-5.72c0-7.04,29.92-30.8,37.62-30.8c1.1,0,1.54,0.439,1.54,0.88
			c-3.08,1.979-22.88,29.92-22.88,35.2C-169.022,371.683-169.242,371.683-169.462,371.683z"/>
		<path fill="#FAD4E0" d="M-24.482,470.464c-29.04,32.779-43.34,53.899-43.34,60.06c0,2.86,13.2-4.18,12.32-3.3
			c-5.5,7.26-17.16,10.78-21.56,10.78c-3.74,0-7.26-3.96-7.26-8.141c0-28.16,112.641-161.261,112.641-192.501
			c0-10.34-10.12-12.1-18.26-12.1c-61.601,0-163.021,103.4-163.021,117.261c0,2.64,2.42,3.96,4.4,3.96c2.2,0,8.58-1.101,10.78-1.76
			c0,1.979-13.2,7.26-18.26,7.26c-7.04,0-11.66-5.5-11.66-12.101c0-35.42,111.98-120.12,177.761-120.12
			c20.9,0,32.12,10.56,32.12,28.6c0,20.9-36.521,73.921-65.78,113.521c63.36-71.061,119.46-111.101,129.36-111.101
			c7.04,0,18.48,6.819,19.58,15.62c-0.88-1.32-3.3-1.761-4.84-1.761c-8.8,0-64.24,80.521-87.121,129.801
			c44.88-75.24,147.181-153.341,161.921-153.341c7.48,0,17.82,11.66,18.7,16.721c-1.98-1.32-5.06-1.32-7.04-1.32
			c-19.8,0-108.9,112.2-108.9,162.581c0,21.12,9.24,29.7,32.78,29.04c20.9-0.66,53.02-15.181,68.2-25.74
			c-26.18,24.2-61.16,30.8-68.86,31.68c-2.42,0.221-4.62,0.44-6.82,0.44c-23.32,0-39.38-14.74-39.38-40.04
			c0-42.46,43.34-108.021,62.04-126.281c-31.68,14.521-116.601,104.721-116.601,126.501c0,4.18-15.18-3.3-15.18-12.32
			c0-22.22,50.82-108.46,67.541-124.74C51.198,394.123,6.978,435.923-24.482,470.464z"/>
		<path fill="#FAD4E0" d="M152.834,492.903c-0.22,2.641,1.76,4.181,6.6,4.181c16.06,0,56.32-30.58,78.541-49.061
			c0.66-0.44,2.2,0.66,1.54,1.32c-16.5,15.399-60.28,57.42-89.54,57.42c-6.82,0-15.62-7.92-15.62-13.86c0-5.28,1.32-9.68,3.08-14.52
			c5.28-12.54,16.5-26.4,30.36-38.061c18.26-15.18,37.84-22,47.3-22c3.3,0,13.42,5.06,13.42,11.22c0,13.641-42.24,45.32-66.88,45.98
			C157.674,480.144,153.495,487.184,152.834,492.903z M164.495,471.123c19.14-2.199,55.66-37.84,56.98-46.2
			C197.055,432.843,171.754,459.463,164.495,471.123z"/>
		<path fill="#FAD4E0" d="M228.953,492.903c-0.22,2.641,1.76,4.181,6.6,4.181c16.06,0,56.32-30.58,78.541-49.061
			c0.66-0.44,2.2,0.66,1.54,1.32c-16.5,15.399-60.281,57.42-89.541,57.42c-6.82,0-15.62-7.92-15.62-13.86
			c0-5.28,1.32-9.68,3.08-14.52c5.28-12.54,16.5-26.4,30.36-38.061c18.26-15.18,37.84-22,47.3-22c3.3,0,13.42,5.06,13.42,11.22
			c0,13.641-42.241,45.32-66.881,45.98C233.793,480.144,229.613,487.184,228.953,492.903z M240.613,471.123
			c19.14-2.199,55.66-37.84,56.98-46.2C273.173,432.843,247.873,459.463,240.613,471.123z"/>
		<path fill="#FAD4E0" d="M383.172,347.923c3.301-2.64,6.16-4.4,8.141-4.4c12.319-0.66,21.12,12.101,16.939,9.681
			c-7.04-3.301-20.02,14.3-29.7,26.84c35.421-1.76,81.841,0,113.301,6.6c1.76,0.44,2.641,0.881,0,0.66
			c-43.56-3.74-83.82-3.52-120.561,1.98c-8.14,10.12-15.4,21.12-24.2,34.1c-19.14,29.041-35.64,56.98-40.92,71.061
			c9.46,1.101,45.98-34.76,58.96-46.64c1.32-1.101,2.2,0.659,1.54,1.319c-10.78,12.32-49.061,52.36-62.26,57.2
			c-2.86,1.101-5.061,0.221-7.04-0.88c-1.761-0.88-6.601-5.5-7.92-8.8c-0.22-0.44-0.66-0.88-0.66-3.3
			c0-6.601,9.9-28.16,36.96-69.961c5.939-9.02,12.32-18.7,20.46-29.479c-20.9,4.18-33.88,14.74-28.16,18.04
			c-3.52,0-11-4.181-11.66-11.221c-0.88-9.899,23.32-16.06,47.96-18.92C371.512,359.363,377.672,352.323,383.172,347.923z"/>
		<path fill="#FAD4E0" d="M627.369,518.863c0,5.061,2.641,10.341,12.761,10.341s20.46-4.841,28.16-8.58
			c-3.3,3.3-16.94,13.64-29.48,13.64c-14.74,0-25.521-5.939-25.521-21.34c0-26.62,22.221-68.641,35.201-86.681
			c-33.44,31.9-121.441,111.101-149.161,111.101c-5.28,0-14.08-9.24-14.08-14.74c0-35.2,120.561-155.101,120.561-183.921
			c0-10.56-9.9-12.76-19.58-12.76c-57.641,0-165.441,95.04-165.441,117.921c0,1.979,1.101,5.06,5.061,5.06
			c3.08,0,7.04-0.88,8.14-1.1c-2.64,2.64-7.479,6.38-12.979,6.38c-11.44,0-13.641-9.46-13.641-14.301
			c0-46.859,117.921-119.24,176.441-119.24c16.06,0,29.26,7.48,29.26,26.84c0,42.461-108.46,157.521-108.46,175.781
			c13.64,1.54,101.86-65.34,135.521-97.9c11-11,27.72-29.92,43.56-48.4c13.641-16.061,27.28-30.8,36.521-38.72
			c3.74-3.521,11.88-9.24,16.061-9.24c7.92,0,16.939,7.26,18.26,16.28c-1.54-2.421-3.96-3.08-6.16-2.86c-6.6,0-22,14.08-39.38,34.32
			C674.01,417.223,627.369,483.004,627.369,518.863z"/>
		<path fill="#FAD4E0" d="M713.388,419.423c1.32-1.1,2.641-1.319,3.3-1.319c5.061,0,13.421,8.58,13.421,14.3
			c0,0.66-0.66-0.22-2.2-0.44c-3.3-0.439-11,8.58-18.04,17.601c-2.86,3.52-12.32,17.16-12.32,17.16
			c19.14-20.9,60.28-50.82,71.28-47.08c2.86,1.1,10.561,9.46,10.561,12.76c0,19.8-43.121,72.601-73.261,72.601
			c-8.58,0-18.7-5.5-18.7-12.761c0-1.1,1.1-1.54,1.1-0.88c0,2.2,3.74,6.38,8.36,6.38c22.22,0,61.82-56.979,64.46-69.3
			c-3.3,0-38.72,17.6-77,57.86c-21.34,30.58-52.36,77.44-57.86,110c-1.1,5.5-1.1,9.9,3.96,10.561
			c-10.12,3.96-20.02-4.18-18.26-17.601c4.62-36.96,48.62-105.82,82.061-148.721C700.188,433.063,708.988,422.943,713.388,419.423z"
			/>
		<path fill="#FAD4E0" d="M835.705,335.163c3.3,0,15.84,1.76,15.84,5.72c0,7.04-29.92,30.8-37.84,30.8c-0.88,0-1.32-0.439-1.32-0.88
			c3.08-1.979,22.66-29.92,22.66-35.2C835.045,335.163,835.265,335.163,835.705,335.163z M860.785,335.163
			c3.3,0,16.061,1.76,16.061,5.72c0,7.04-29.921,30.8-37.841,30.8c-1.1,0-1.319-0.439-1.319-0.88c3.3-1.979,22.66-29.92,22.66-35.2
			C860.346,335.163,860.346,335.163,860.785,335.163z"/>
	</g>
	<g>
		<g>
			<linearGradient id="SVGID_1_" gradientUnits="userSpaceOnUse" x1="-199.856" y1="360.3398" x2="-152.213" y2="312.6969">
				<stop  offset="0" style="stop-color:#FF2869"/>
				<stop  offset="1" style="stop-color:#9B41EB"/>
			</linearGradient>
			<path fill="url(#SVGID_1_)" d="M-194.763,354.683c-2.86,0-15.62-1.76-15.62-5.72c0-7.04,29.92-30.8,37.621-30.8
				c1.1,0,1.32,0.439,1.32,0.88c-3.08,1.979-22.66,29.92-22.66,35.2C-194.103,354.683-194.322,354.683-194.763,354.683z
				 M-169.462,354.683c-3.08,0-15.84-1.76-15.84-5.72c0-7.04,29.92-30.8,37.62-30.8c1.1,0,1.54,0.439,1.54,0.88
				c-3.08,1.979-22.88,29.92-22.88,35.2C-169.022,354.683-169.242,354.683-169.462,354.683z"/>
			<linearGradient id="SVGID_2_" gradientUnits="userSpaceOnUse" x1="-64.3081" y1="536.3096" x2="174.2816" y2="297.7198">
				<stop  offset="0" style="stop-color:#FF2869"/>
				<stop  offset="1" style="stop-color:#9B41EB"/>
			</linearGradient>
			<path fill="url(#SVGID_2_)" d="M-24.482,453.464c-29.04,32.779-43.34,53.899-43.34,60.06c0,2.86,13.2-4.18,12.32-3.3
				c-5.5,7.26-17.16,10.78-21.56,10.78c-3.74,0-7.26-3.96-7.26-8.141c0-28.16,112.641-161.261,112.641-192.501
				c0-10.34-10.12-12.1-18.26-12.1c-61.601,0-163.021,103.4-163.021,117.261c0,2.64,2.42,3.96,4.4,3.96c2.2,0,8.58-1.101,10.78-1.76
				c0,1.979-13.2,7.26-18.26,7.26c-7.04,0-11.66-5.5-11.66-12.101c0-35.42,111.98-120.12,177.761-120.12
				c20.9,0,32.12,10.56,32.12,28.6c0,20.9-36.521,73.921-65.78,113.521c63.36-71.061,119.46-111.101,129.36-111.101
				c7.04,0,18.48,6.819,19.58,15.62c-0.88-1.32-3.3-1.761-4.84-1.761c-8.8,0-64.24,80.521-87.121,129.801
				c44.88-75.24,147.181-153.341,161.921-153.341c7.48,0,17.82,11.66,18.7,16.721c-1.98-1.32-5.06-1.32-7.04-1.32
				c-19.8,0-108.9,112.2-108.9,162.581c0,21.12,9.24,29.7,32.78,29.04c20.9-0.66,53.02-15.181,68.2-25.74
				c-26.18,24.2-61.16,30.8-68.86,31.68c-2.42,0.221-4.62,0.44-6.82,0.44c-23.32,0-39.38-14.74-39.38-40.04
				c0-42.46,43.34-108.021,62.04-126.281c-31.68,14.521-116.601,104.721-116.601,126.501c0,4.18-15.18-3.3-15.18-12.32
				c0-22.22,50.82-108.46,67.541-124.74C51.198,377.123,6.978,418.923-24.482,453.464z"/>
			<linearGradient id="SVGID_3_" gradientUnits="userSpaceOnUse" x1="142.8037" y1="488.3096" x2="224.9934" y2="406.1199">
				<stop  offset="0" style="stop-color:#FF2869"/>
				<stop  offset="1" style="stop-color:#9B41EB"/>
			</linearGradient>
			<path fill="url(#SVGID_3_)" d="M152.834,475.903c-0.22,2.641,1.76,4.181,6.6,4.181c16.06,0,56.32-30.58,78.541-49.061
				c0.66-0.44,2.2,0.66,1.54,1.32c-16.5,15.399-60.28,57.42-89.54,57.42c-6.82,0-15.62-7.92-15.62-13.86
				c0-5.28,1.32-9.68,3.08-14.52c5.28-12.54,16.5-26.4,30.36-38.061c18.26-15.18,37.84-22,47.3-22c3.3,0,13.42,5.06,13.42,11.22
				c0,13.641-42.24,45.32-66.88,45.98C157.674,463.144,153.495,470.184,152.834,475.903z M164.495,454.123
				c19.14-2.199,55.66-37.84,56.98-46.2C197.055,415.843,171.754,442.463,164.495,454.123z"/>
			<linearGradient id="SVGID_4_" gradientUnits="userSpaceOnUse" x1="218.9224" y1="488.3096" x2="301.1122" y2="406.1197">
				<stop  offset="0" style="stop-color:#FF2869"/>
				<stop  offset="1" style="stop-color:#9B41EB"/>
			</linearGradient>
			<path fill="url(#SVGID_4_)" d="M228.953,475.903c-0.22,2.641,1.76,4.181,6.6,4.181c16.06,0,56.32-30.58,78.541-49.061
				c0.66-0.44,2.2,0.66,1.54,1.32c-16.5,15.399-60.281,57.42-89.541,57.42c-6.82,0-15.62-7.92-15.62-13.86
				c0-5.28,1.32-9.68,3.08-14.52c5.28-12.54,16.5-26.4,30.36-38.061c18.26-15.18,37.84-22,47.3-22c3.3,0,13.42,5.06,13.42,11.22
				c0,13.641-42.241,45.32-66.881,45.98C233.793,463.144,229.613,470.184,228.953,475.903z M240.613,454.123
				c19.14-2.199,55.66-37.84,56.98-46.2C273.173,415.843,247.873,442.463,240.613,454.123z"/>
			<linearGradient id="SVGID_5_" gradientUnits="userSpaceOnUse" x1="291.8145" y1="483.5332" x2="449.3156" y2="326.032">
				<stop  offset="0" style="stop-color:#FF2869"/>
				<stop  offset="1" style="stop-color:#9B41EB"/>
			</linearGradient>
			<path fill="url(#SVGID_5_)" d="M383.172,330.923c3.301-2.64,6.16-4.4,8.141-4.4c12.319-0.66,21.12,12.101,16.939,9.681
				c-7.04-3.301-20.02,14.3-29.7,26.84c35.421-1.76,81.841,0,113.301,6.6c1.76,0.44,2.641,0.881,0,0.66
				c-43.56-3.74-83.82-3.52-120.561,1.98c-8.14,10.12-15.4,21.12-24.2,34.1c-19.14,29.041-35.64,56.98-40.92,71.061
				c9.46,1.101,45.98-34.76,58.96-46.64c1.32-1.101,2.2,0.659,1.54,1.319c-10.78,12.32-49.061,52.36-62.26,57.2
				c-2.86,1.101-5.061,0.221-7.04-0.88c-1.761-0.88-6.601-5.5-7.92-8.8c-0.22-0.44-0.66-0.88-0.66-3.3
				c0-6.601,9.9-28.16,36.96-69.961c5.939-9.02,12.32-18.7,20.46-29.479c-20.9,4.18-33.88,14.74-28.16,18.04
				c-3.52,0-11-4.181-11.66-11.221c-0.88-9.899,23.32-16.06,47.96-18.92C371.512,342.363,377.672,335.323,383.172,330.923z"/>
			<linearGradient id="SVGID_6_" gradientUnits="userSpaceOnUse" x1="483.3252" y1="508.0625" x2="711.2931" y2="280.0946">
				<stop  offset="0" style="stop-color:#FF2869"/>
				<stop  offset="1" style="stop-color:#9B41EB"/>
			</linearGradient>
			<path fill="url(#SVGID_6_)" d="M627.369,501.863c0,5.061,2.641,10.341,12.761,10.341s20.46-4.841,28.16-8.58
				c-3.3,3.3-16.94,13.64-29.48,13.64c-14.74,0-25.521-5.939-25.521-21.34c0-26.62,22.221-68.641,35.201-86.681
				c-33.44,31.9-121.441,111.101-149.161,111.101c-5.28,0-14.08-9.24-14.08-14.74c0-35.2,120.561-155.101,120.561-183.921
				c0-10.56-9.9-12.76-19.58-12.76c-57.641,0-165.441,95.04-165.441,117.921c0,1.979,1.101,5.06,5.061,5.06
				c3.08,0,7.04-0.88,8.14-1.1c-2.64,2.64-7.479,6.38-12.979,6.38c-11.44,0-13.641-9.46-13.641-14.301
				c0-46.859,117.921-119.24,176.441-119.24c16.06,0,29.26,7.48,29.26,26.84c0,42.461-108.46,157.521-108.46,175.781
				c13.64,1.54,101.86-65.34,135.521-97.9c11-11,27.72-29.92,43.56-48.4c13.641-16.061,27.28-30.8,36.521-38.72
				c3.74-3.521,11.88-9.24,16.061-9.24c7.92,0,16.939,7.26,18.26,16.28c-1.54-2.421-3.96-3.08-6.16-2.86
				c-6.6,0-22,14.08-39.38,34.32C674.01,400.223,627.369,466.004,627.369,501.863z"/>
			<linearGradient id="SVGID_7_" gradientUnits="userSpaceOnUse" x1="598.5918" y1="569.3301" x2="767.5282" y2="400.3936">
				<stop  offset="0" style="stop-color:#FF2869"/>
				<stop  offset="1" style="stop-color:#9B41EB"/>
			</linearGradient>
			<path fill="url(#SVGID_7_)" d="M713.388,402.423c1.32-1.1,2.641-1.319,3.3-1.319c5.061,0,13.421,8.58,13.421,14.3
				c0,0.66-0.66-0.22-2.2-0.44c-3.3-0.439-11,8.58-18.04,17.601c-2.86,3.52-12.32,17.16-12.32,17.16
				c19.14-20.9,60.28-50.82,71.28-47.08c2.86,1.1,10.561,9.46,10.561,12.76c0,19.8-43.121,72.601-73.261,72.601
				c-8.58,0-18.7-5.5-18.7-12.761c0-1.1,1.1-1.54,1.1-0.88c0,2.2,3.74,6.38,8.36,6.38c22.22,0,61.82-56.979,64.46-69.3
				c-3.3,0-38.72,17.6-77,57.86c-21.34,30.58-52.36,77.44-57.86,110c-1.1,5.5-1.1,9.9,3.96,10.561
				c-10.12,3.96-20.02-4.18-18.26-17.601c4.62-36.96,48.62-105.82,82.061-148.721C700.188,416.063,708.988,405.943,713.388,402.423z
				"/>
			<linearGradient id="SVGID_8_" gradientUnits="userSpaceOnUse" x1="818.4521" y1="360.1592" x2="866.2114" y2="312.3999">
				<stop  offset="0" style="stop-color:#FF2869"/>
				<stop  offset="1" style="stop-color:#9B41EB"/>
			</linearGradient>
			<path fill="url(#SVGID_8_)" d="M835.705,318.163c3.3,0,15.84,1.76,15.84,5.72c0,7.04-29.92,30.8-37.84,30.8
				c-0.88,0-1.32-0.439-1.32-0.88c3.08-1.979,22.66-29.92,22.66-35.2C835.045,318.163,835.265,318.163,835.705,318.163z
				 M860.785,318.163c3.3,0,16.061,1.76,16.061,5.72c0,7.04-29.921,30.8-37.841,30.8c-1.1,0-1.319-0.439-1.319-0.88
				c3.3-1.979,22.66-29.92,22.66-35.2C860.346,318.163,860.346,318.163,860.785,318.163z"/>
		</g>
	</g>
</g>
</svg>
