<?xml version="1.0" encoding="utf-8"?>
<!-- Generator: Adobe Illustrator 16.0.0, SVG Export Plug-In . SVG Version: 6.00 Build 0)  -->
<!DOCTYPE svg PUBLIC "-//W3C//DTD SVG 1.1//EN" "http://www.w3.org/Graphics/SVG/1.1/DTD/svg11.dtd">
<svg version="1.1" id="Graphic" xmlns="http://www.w3.org/2000/svg" xmlns:xlink="http://www.w3.org/1999/xlink" x="0px" y="0px"
	 width="681.221px" height="656.935px" viewBox="0 0 681.221 656.935" enable-background="new 0 0 681.221 656.935"
	 xml:space="preserve">
<g>
	<g>
		<polygon fill="#8E8E8E" points="394.445,652.516 370.686,638.707 335.623,574.526 359.382,588.335 		"/>
	</g>
	<g enable-background="new    ">
		<defs>
			<path id="SVGID_1_" enable-background="new    " d="M534.686,124.841c3.177,1.822,6.329,3.681,9.506,5.515
				c2.77,1.606,5.551,3.225,8.319,4.831c1.979,1.163,3.956,2.302,5.934,3.452c-7.396-4.291-17.633-3.704-28.938,2.829l-23.759-13.81
				C517.052,121.137,527.302,120.539,534.686,124.841z"/>
		</defs>
		<clipPath id="SVGID_2_">
			<use xlink:href="#SVGID_1_"  overflow="visible"/>
		</clipPath>
		<g clip-path="url(#SVGID_2_)">
			<path fill="#8E8E8E" d="M529.507,141.468l-23.759-13.81c11.304-6.521,21.554-7.12,28.938-2.817l23.759,13.798
				C551.049,134.348,540.812,134.935,529.507,141.468L529.507,141.468z"/>
		</g>
	</g>
	<g enable-background="new    ">
		<defs>
			<path id="SVGID_3_" enable-background="new    " d="M228.971,649.747c-7.912-4.603-15.836-9.182-23.759-13.81
				c-7.3-4.219-11.832-13.246-11.868-26.024l23.759,13.786C217.139,636.5,221.67,645.515,228.971,649.747z"/>
		</defs>
		<clipPath id="SVGID_4_">
			<use xlink:href="#SVGID_3_"  overflow="visible"/>
		</clipPath>
		<g clip-path="url(#SVGID_4_)">
			<path fill="#8E8E8E" d="M228.971,649.747l-23.759-13.81c-7.3-4.219-11.832-13.246-11.868-26.024l23.759,13.786
				C217.139,636.5,221.67,645.515,228.971,649.747L228.971,649.747z"/>
		</g>
	</g>
	<g>
		<polygon fill="#8E8E8E" points="217.104,623.699 193.344,609.913 192.625,355.252 216.396,369.061 		"/>
	</g>
	<g>
		<polygon fill="#8E8E8E" points="256.938,298.839 233.178,285.03 505.749,127.659 529.507,141.468 		"/>
	</g>
	<g enable-background="new    ">
		<defs>
			<path id="SVGID_5_" enable-background="new    " d="M216.396,369.061l-23.771-13.809c-0.061-25.773,18.089-57.24,40.553-70.223
				l23.76,13.81C234.473,311.797,216.324,343.3,216.396,369.061z"/>
		</defs>
		<clipPath id="SVGID_6_">
			<use xlink:href="#SVGID_5_"  overflow="visible"/>
		</clipPath>
		<g clip-path="url(#SVGID_6_)">
			<path fill="#8E8E8E" d="M216.396,369.061l-23.771-13.809c-0.061-25.773,18.089-57.24,40.553-70.223l23.76,13.81
				C234.473,311.797,216.324,343.3,216.396,369.061L216.396,369.061z"/>
		</g>
	</g>
	<g>
		<linearGradient id="SVGID_7_" gradientUnits="userSpaceOnUse" x1="216.396" y1="394.2056" x2="571.0444" y2="394.2056">
			<stop  offset="0" style="stop-color:#9B41EB"/>
			<stop  offset="1" style="stop-color:#FF2869"/>
		</linearGradient>
		<path fill="url(#SVGID_7_)" stroke="#FFFFFF" stroke-miterlimit="10" d="M529.507,141.468
			c22.477-12.971,40.746-2.518,40.817,23.268l0.72,254.648c0.071,25.749-18.077,57.181-40.542,70.15l-101.474,58.583
			l-34.584,104.398l-35.063-64.181L257.92,646.917c-22.464,12.971-40.721,2.542-40.817-23.219l-0.708-254.638
			c-0.072-25.761,18.077-57.264,40.542-70.222L529.507,141.468z"/>
	</g>
</g>
<g>
	<path fill="#F2F2F2" d="M485.162,310.319l-2.498-2.263l-53.844,32.828l2.777,105.556l12.198-13.117
		c2.712-2.911,9.832-10.408,17.949-19.772c11.84-13.527,25.689-30.172,30.654-40.14
		C511.923,334.064,486.233,311.243,485.162,310.319z M477.772,373.812c-1.982,4.047-8.728,12.575-16.492,22.039
		c-4.05,4.995-8.796,10.097-13.198,14.988l-1.707-64.887l26.409-16.1C477.821,335.928,488.698,352.007,477.772,373.812z"/>
	<path opacity="0.1" fill="#231F20" enable-background="new    " d="M446.375,345.953l1.707,64.887
		c4.402-4.892,8.796-10.096,13.198-14.988l0.473,18.01c-8.125,9.054-15.24,16.86-17.947,19.774l-12.198,13.115l-2.778-105.558
		l30.523-18.608l0.407,15.524l-13.378,8.156L446.375,345.953z"/>
	<path fill="#F2F2F2" d="M450.247,440.118l-98.085,59.801c-3.774,2.301-6.935,1.387-7.024-2.026l-3.186-121.082l111.807-68.165
		l3.186,121.08C457.034,433.14,454.02,437.817,450.247,440.118z"/>
	<path fill="#FFD15C" d="M384.438,455.32l-25.036,15.262c-3.774,2.302-6.932,1.389-7.021-2.027L349.841,372l32.236-19.654
		l2.703,102.762L384.438,455.32L384.438,455.32z"/>
	<polygon fill="#F8B64C" points="381.735,352.556 413.973,332.9 416.679,435.664 384.438,455.32 	"/>
	<path fill="#F4A83B" d="M441.711,420.399l-25.379,15.474l-2.701-102.763l32.238-19.655l2.54,96.555
		C448.499,413.422,445.488,418.098,441.711,420.399z"/>
	<g>
		<path fill="#F2F2F2" d="M444.225,304.046c-3.771,2.301-7.169,5.634-9.861,9.17c-0.703-0.204-1.398-0.095-2.434,0.22
			c-1.528-5.062-7.479-6.165-14.341-1.982c-5.487,3.346-10.213,9.067-12.5,14.877c-1.521-4.753-7.465-5.545-13.979-1.571
			c-6.175,3.763-11.563,10.837-13.148,16.849c-2.458-0.712-5.919,0.138-9.351,2.229c-7.202,4.393-12.558,12.706-13.434,19.231
			c-1.037,0.317-2.417,0.844-3.444,1.468c-6.858,4.182-12.217,12.498-12.054,18.707c0.162,6.21,5.782,7.831,12.642,3.647
			c3.429-2.09,6.141-5.005,8.492-8.33c1.062,0.613,2.114,0.918,3.502,0.703l0.466,17.695c0.058,2.173,2.156,2.471,4.216,1.218
			c2.398-1.466,4.064-4.374,4.016-6.237l-0.417-15.831c2.736-1.984,5.112-4.382,6.795-6.666c2.443,0.088,5.218-0.344,8.648-2.435
			c1.027-0.626,2.056-1.254,2.734-1.982c0.695-0.108,1.39-0.215,2.084-0.324l0.645,24.526c0.073,2.793,2.881,3.606,5.969,1.725l0,0
			c3.084-1.884,5.764-6.037,5.689-8.833l-0.644-24.525c2.72-2.604,4.734-5.412,6.394-8.632c3.191,2.154,8.402,1.502,13.891-1.843
			c3.771-2.3,7.17-5.634,9.864-9.168c2.793,0.19,6.256-0.659,10.028-2.96c9.257-5.645,16.623-17.075,16.404-25.458
			C461.211,300.631,453.488,298.402,444.225,304.046z"/>
		<path fill="#F2F2F2" d="M406.419,323.942c-0.333,0.521-1.012,1.248-1.348,1.768c0.009,0.311,0.353,0.103,0.362,0.412
			C405.417,325.501,405.742,324.671,406.419,323.942z"/>
	</g>
	<g>
		<path opacity="0.05" fill="#231F20" enable-background="new    " d="M445.027,334.472c-3.772,2.301-7.234,3.149-10.026,2.957
			c-2.696,3.536-6.09,6.87-9.865,9.17c-5.831,3.556-10.695,4-13.889,1.844c-1.666,2.909-4.018,6.235-6.393,8.631l0.034,1.242
			c1.001-1.559,2.349-3.327,3.01-4.676c3.192,2.152,8.404,1.5,13.892-1.846c3.772-2.3,7.169-5.634,9.862-9.168
			c2.793,0.192,6.256-0.659,10.027-2.958c5.488-3.346,10.226-8.756,13.213-14.363C452.205,329.15,448.801,332.172,445.027,334.472z"
			/>
		<path opacity="0.05" fill="#231F20" enable-background="new    " d="M399.805,390.433L399.805,390.433
			c-3.086,1.881-5.896,1.071-5.967-1.724l-0.649-24.527c-0.691,0.105-1.384,0.216-2.08,0.323c-1.02,0.938-2.052,1.566-2.734,1.984
			c-3.085,1.882-6.198,2.832-8.648,2.433c-2.028,2.497-4.401,4.891-6.794,6.664l0.066,2.484c1.363-1.146,2.376-2.395,3.379-3.954
			c2.441,0.091,5.219-0.34,8.65-2.431c1.027-0.628,2.058-1.256,2.733-1.983c0.695-0.11,1.389-0.216,2.082-0.324l0.646,24.527
			c0.074,2.791,2.882,3.604,5.97,1.723l0,0c2.402-1.465,4.416-4.271,5.395-6.761C401.17,389.287,400.489,390.014,399.805,390.433z"
			/>
		<path opacity="0.05" fill="#231F20" enable-background="new    " d="M364.431,396.857l-0.465-17.697
			c-1.39,0.218-2.442-0.087-3.504-0.702c-2.008,3.118-5.064,6.243-8.491,8.334c-4.116,2.508-7.595,2.734-9.719,1.505l0.156,5.901
			c1.737-0.114,3.812-0.748,6.214-2.215c3.429-2.088,6.14-5.003,8.491-8.331c1.061,0.613,2.116,0.918,3.503,0.704l0.467,17.697
			c0.058,2.173,2.155,2.469,4.213,1.217c2.058-1.257,3.732-3.854,4.034-5.614c-0.343,0.207-0.343,0.207-0.688,0.419
			C366.594,399.638,364.489,399.031,364.431,396.857z"/>
		<g opacity="0.001">
			<path fill="#231F20" d="M357.442,356.327c2.017-2.806,4.737-5.412,7.822-7.292c3.773-2.303,6.891-2.939,9.35-2.231
				c0.646-1.972,1.299-3.63,2.303-5.188c-2.44-0.09-5.209,0.651-8.295,2.536C363.811,346.766,359.751,351.448,357.442,356.327z"/>
			<path fill="#231F20" d="M391.11,324.76c-4.803,2.928-8.862,7.61-11.514,12.698c2.359-3.016,5.078-5.621,8.166-7.502
				c6.857-4.182,12.46-3.179,13.978,1.571c0.646-1.969,1.987-4.047,2.99-5.607C403.22,321.476,397.625,320.787,391.11,324.76z"/>
			<path fill="#231F20" d="M444.225,304.046c-3.771,2.301-7.169,5.634-9.861,9.17c-0.703-0.204-1.398-0.095-2.434,0.22
				c-1.528-5.062-7.479-6.165-14.341-1.982c-4.802,2.927-8.859,7.609-11.511,12.697c2.358-3.016,5.077-5.621,8.163-7.502
				c6.858-4.181,12.815-3.079,14.34,1.983c0.695-0.108,1.387-0.214,2.434-0.221c2.694-3.536,6.092-6.869,9.863-9.169
				c9.261-5.646,16.986-3.417,17.208,4.966c0.088,3.415-1.202,7.356-3.194,11.096c4.041-5.303,6.672-11.323,6.541-16.29
				C461.211,300.631,453.488,298.402,444.225,304.046z"/>
		</g>
	</g>
</g>
<g enable-background="new    ">
	<g enable-background="new    ">
		<g enable-background="new    ">
			<linearGradient id="SVGID_8_" gradientUnits="userSpaceOnUse" x1="84.5981" y1="447.4097" x2="94.731" y2="447.4097">
				<stop  offset="0" style="stop-color:#9B41EB"/>
				<stop  offset="1" style="stop-color:#FF2869"/>
			</linearGradient>
			<path fill="url(#SVGID_8_)" d="M88.677,447.287l-4.079-2.374c1.765,1.032,3.661,1.855,5.685,2.469
				c0.137,0.032,0.259,0.087,0.369,0.15l4.08,2.375c-0.114-0.073-0.237-0.119-0.369-0.164
				C92.334,449.133,90.438,448.315,88.677,447.287L88.677,447.287z"/>
		</g>
	</g>
	<g enable-background="new    ">
		<g>
			<linearGradient id="SVGID_9_" gradientUnits="userSpaceOnUse" x1="44.4849" y1="518.5708" x2="69.3765" y2="518.5708">
				<stop  offset="0" style="stop-color:#9B41EB"/>
				<stop  offset="1" style="stop-color:#FF2869"/>
			</linearGradient>
			<path fill="url(#SVGID_9_)" d="M48.564,516.215l-4.079-2.365c5.994,3.475,12.739,5.799,20.166,6.858
				c0.241,0.027,0.454,0.109,0.646,0.218l4.08,2.365c-0.191-0.109-0.41-0.182-0.646-0.213
				C61.298,522.023,54.554,519.69,48.564,516.215L48.564,516.215z"/>
		</g>
	</g>
	<g>
		<g enable-background="new    ">
			<linearGradient id="SVGID_10_" gradientUnits="userSpaceOnUse" x1="64.6099" y1="482.4087" x2="86.9946" y2="482.4087">
				<stop  offset="0" style="stop-color:#9B41EB"/>
				<stop  offset="1" style="stop-color:#FF2869"/>
			</linearGradient>
			<path fill="url(#SVGID_10_)" d="M68.685,480.795l-4.075-2.373c5.166,3.006,11.052,4.838,17.56,5.365
				c0.277,0.033,0.527,0.101,0.741,0.229l4.084,2.378c-0.218-0.127-0.473-0.209-0.746-0.236
				C79.741,485.625,73.851,483.788,68.685,480.795L68.685,480.795z"/>
		</g>
	</g>
	<g enable-background="new    ">
		<g enable-background="new    ">
			<linearGradient id="SVGID_11_" gradientUnits="userSpaceOnUse" x1="87.8179" y1="344.0005" x2="94.3896" y2="344.0005">
				<stop  offset="0" style="stop-color:#9B41EB"/>
				<stop  offset="1" style="stop-color:#FF2869"/>
			</linearGradient>
			<path fill="url(#SVGID_11_)" d="M91.897,345.426l-4.08-2.375c0.914-0.522,1.819-0.631,2.492-0.245l4.08,2.37
				C93.716,344.78,92.812,344.899,91.897,345.426L91.897,345.426z"/>
		</g>
	</g>
	<g enable-background="new    ">
		<defs>
			<path id="SVGID_12_" enable-background="new    " d="M83.693,455.819c-0.068-0.027-0.146-0.078-0.205-0.114
				c-1.296-0.755-2.588-1.505-3.879-2.251c-11.242-6.531-17.592-20.32-17.637-38.985c-0.064-21.944,8.582-47.226,23.717-69.347
				c0.633-0.928,1.383-1.638,2.129-2.07l4.08,2.375c-0.746,0.428-1.501,1.133-2.128,2.064
				c-15.136,22.112-23.786,47.408-23.723,69.348C66.097,435.499,72.446,449.284,83.693,455.819z"/>
		</defs>
		<linearGradient id="SVGID_13_" gradientUnits="userSpaceOnUse" x1="61.9717" y1="399.4351" x2="91.8975" y2="399.4351">
			<stop  offset="0" style="stop-color:#9B41EB"/>
			<stop  offset="1" style="stop-color:#FF2869"/>
		</linearGradient>
		<use xlink:href="#SVGID_12_"  overflow="visible" fill="url(#SVGID_13_)"/>
		<clipPath id="SVGID_14_">
			<use xlink:href="#SVGID_12_"  overflow="visible"/>
		</clipPath>
		<g clip-path="url(#SVGID_14_)">
			<linearGradient id="SVGID_15_" gradientUnits="userSpaceOnUse" x1="61.9717" y1="399.4351" x2="91.8975" y2="399.4351">
				<stop  offset="0" style="stop-color:#9B41EB"/>
				<stop  offset="1" style="stop-color:#FF2869"/>
			</linearGradient>
			<path fill="url(#SVGID_15_)" d="M83.693,455.819l-4.084-2.365c-11.242-6.531-17.592-20.32-17.637-38.985
				c-0.064-21.944,8.582-47.226,23.717-69.347c0.633-0.928,1.383-1.638,2.129-2.07l4.08,2.375c-0.746,0.428-1.501,1.133-2.128,2.064
				c-15.136,22.112-23.786,47.408-23.723,69.348C66.097,435.499,72.446,449.284,83.693,455.819L83.693,455.819z"/>
		</g>
	</g>
	<g>
		<linearGradient id="SVGID_16_" gradientUnits="userSpaceOnUse" x1="66.0459" y1="401.813" x2="95.7437" y2="401.813">
			<stop  offset="0" style="stop-color:#9B41EB"/>
			<stop  offset="1" style="stop-color:#FF2869"/>
		</linearGradient>
		<path fill="url(#SVGID_16_)" d="M91.897,345.426c1.055-0.609,2.092-0.669,2.783-0.037c1.187,1.092,0.91,3.784-0.623,6.031
			c-13.403,19.574-21.062,41.95-21.002,61.375c0.055,19.428,7.827,32.881,21.307,36.947c1.537,0.459,1.842,2.814,0.66,5.266
			c-0.669,1.429-1.715,2.588-2.77,3.193c-0.741,0.432-1.492,0.596-2.137,0.4c-15.236-4.59-24.009-19.797-24.068-41.764
			c-0.063-21.939,8.587-47.235,23.723-69.348C90.396,346.559,91.151,345.854,91.897,345.426z"/>
	</g>
	<g enable-background="new    ">
		<g enable-background="new    ">
			<linearGradient id="SVGID_17_" gradientUnits="userSpaceOnUse" x1="79.9272" y1="314.0137" x2="86.5034" y2="314.0137">
				<stop  offset="0" style="stop-color:#9B41EB"/>
				<stop  offset="1" style="stop-color:#FF2869"/>
			</linearGradient>
			<path fill="url(#SVGID_17_)" d="M84.002,315.441l-4.075-2.374c0.923-0.532,1.833-0.637,2.501-0.246l4.075,2.374
				C85.839,314.8,84.93,314.905,84.002,315.441L84.002,315.441z"/>
		</g>
	</g>
	<g enable-background="new    ">
		<g>
			<linearGradient id="SVGID_18_" gradientUnits="userSpaceOnUse" x1="33.4922" y1="401.2153" x2="84.0024" y2="401.2153">
				<stop  offset="0" style="stop-color:#9B41EB"/>
				<stop  offset="1" style="stop-color:#FF2869"/>
			</linearGradient>
			<path fill="url(#SVGID_18_)" d="M63.746,489.364l-4.08-2.373c-16.432-9.547-26.096-29.953-26.173-57.328
				C33.392,392.957,50.52,348.874,78.19,314.6c0.546-0.673,1.146-1.187,1.737-1.533l4.075,2.374
				c-0.592,0.341-1.192,0.855-1.737,1.528c-27.666,34.27-44.798,78.365-44.688,115.063C37.65,459.403,47.309,479.813,63.746,489.364
				L63.746,489.364z"/>
		</g>
	</g>
	<g>
		<linearGradient id="SVGID_19_" gradientUnits="userSpaceOnUse" x1="37.5762" y1="405.0708" x2="88.021" y2="405.0708">
			<stop  offset="0" style="stop-color:#9B41EB"/>
			<stop  offset="1" style="stop-color:#FF2869"/>
		</linearGradient>
		<path fill="url(#SVGID_19_)" d="M84.002,315.441c1.219-0.709,2.401-0.655,3.056,0.268c0.982,1.365,0.396,4.157-1.273,6.249
			c-25.505,31.585-41.3,72.212-41.204,106.03c0.091,33.801,16.067,56.086,41.668,58.169c1.679,0.149,2.274,2.274,1.31,4.762
			c-0.637,1.669-1.819,3.069-3.038,3.774c-0.592,0.346-1.196,0.523-1.751,0.486C55,492.903,37.677,468.725,37.577,432.033
			c-0.109-36.698,17.022-80.794,44.688-115.063C82.81,316.296,83.411,315.782,84.002,315.441z"/>
	</g>
	<g enable-background="new    ">
		<g enable-background="new    ">
			<linearGradient id="SVGID_20_" gradientUnits="userSpaceOnUse" x1="68.9849" y1="291.5522" x2="75.561" y2="291.5522">
				<stop  offset="0" style="stop-color:#9B41EB"/>
				<stop  offset="1" style="stop-color:#FF2869"/>
			</linearGradient>
			<path fill="url(#SVGID_20_)" d="M73.064,292.979l-4.079-2.37c0.928-0.537,1.837-0.637,2.501-0.25l4.075,2.37
				C74.897,292.347,73.992,292.438,73.064,292.979L73.064,292.979z"/>
		</g>
	</g>
	<g enable-background="new    ">
		<g>
			<linearGradient id="SVGID_21_" gradientUnits="userSpaceOnUse" x1="5.4492" y1="407.687" x2="73.064" y2="407.687">
				<stop  offset="0" style="stop-color:#9B41EB"/>
				<stop  offset="1" style="stop-color:#FF2869"/>
			</linearGradient>
			<path fill="url(#SVGID_21_)" d="M43.576,524.765l-4.075-2.374C17.943,509.866,5.55,483.229,5.45,447.109
				C5.304,397.15,29.022,337.745,67.347,292.038c0.519-0.632,1.087-1.11,1.638-1.428l4.079,2.37c-0.555,0.323-1.123,0.8-1.642,1.419
				C33.097,340.11,9.388,399.524,9.525,449.469C9.629,485.598,22.018,512.231,43.576,524.765L43.576,524.765z"/>
		</g>
	</g>
	<g>
		<linearGradient id="SVGID_22_" gradientUnits="userSpaceOnUse" x1="9.5244" y1="412.2886" x2="76.5845" y2="412.2886">
			<stop  offset="0" style="stop-color:#9B41EB"/>
			<stop  offset="1" style="stop-color:#FF2869"/>
		</linearGradient>
		<path fill="url(#SVGID_22_)" d="M73.064,292.979c1.251-0.719,2.47-0.655,3.102,0.341c0.919,1.446,0.273,4.257-1.423,6.294
			c-36.029,42.974-58.332,98.831-58.2,145.808c0.127,44.001,19.638,73.03,52.188,77.656c1.651,0.218,2.151,2.424,1.133,4.911
			c-0.655,1.597-1.806,2.92-2.97,3.598c-0.628,0.368-1.283,0.546-1.865,0.478c-34.609-4.912-55.366-35.783-55.503-82.596
			C9.388,399.524,33.097,340.11,71.422,294.398C71.941,293.779,72.509,293.302,73.064,292.979z"/>
	</g>
</g>
<g enable-background="new    ">
	<g enable-background="new    ">
		<g>
			<linearGradient id="SVGID_23_" gradientUnits="userSpaceOnUse" x1="610.4565" y1="107.1431" x2="630.6567" y2="107.1431">
				<stop  offset="0" style="stop-color:#9B41EB"/>
				<stop  offset="1" style="stop-color:#FF2869"/>
			</linearGradient>
			<path fill="url(#SVGID_23_)" d="M614.364,147.072l-3.116-1.807c-0.08-0.052-0.16-0.098-0.229-0.166
				c-0.91-0.82-0.688-2.889,0.486-4.602c10.229-14.961,16.08-32.057,16.039-46.894c-0.038-12.63-4.326-21.97-11.929-26.39
				l3.117,1.813c7.603,4.409,11.887,13.757,11.925,26.394c0.045,14.83-5.807,31.926-16.039,46.883
				c-1.171,1.721-1.394,3.785-0.483,4.598C614.204,146.968,614.284,147.027,614.364,147.072L614.364,147.072z"/>
		</g>
	</g>
	<g enable-background="new    ">
		<g>
			<linearGradient id="SVGID_24_" gradientUnits="userSpaceOnUse" x1="630.0874" y1="97.5884" x2="673.8569" y2="97.5884">
				<stop  offset="0" style="stop-color:#9B41EB"/>
				<stop  offset="1" style="stop-color:#FF2869"/>
			</linearGradient>
			<path fill="url(#SVGID_24_)" d="M633.975,180.634l-3.117-1.814c-0.135-0.08-0.257-0.184-0.361-0.313
				c-0.785-1.004-0.406-3.123,0.834-4.736c24.777-32.195,39.51-71.487,39.413-105.098c-0.076-25.977-9.11-45.149-24.573-54.131
				l3.117,1.807c15.459,8.984,24.5,28.154,24.569,54.128c0.097,33.624-14.635,72.909-39.409,105.098
				c-1.24,1.622-1.623,3.745-0.834,4.739C633.717,180.453,633.843,180.554,633.975,180.634L633.975,180.634z"/>
		</g>
	</g>
	<g enable-background="new    ">
		<g>
			<linearGradient id="SVGID_25_" gradientUnits="userSpaceOnUse" x1="616.5034" y1="103.8979" x2="652.436" y2="103.8979">
				<stop  offset="0" style="stop-color:#9B41EB"/>
				<stop  offset="1" style="stop-color:#FF2869"/>
			</linearGradient>
			<path fill="url(#SVGID_25_)" d="M620.403,168.066l-3.117-1.811c-0.159-0.09-0.302-0.229-0.42-0.396
				c-0.744-1.045-0.306-3.186,0.97-4.777c19.496-24.127,31.553-55.17,31.483-80.997c-0.056-19.267-6.849-33.642-18.416-40.354
				l3.121,1.803c11.563,6.721,18.353,21.098,18.412,40.361c0.069,25.824-11.984,56.867-31.484,81.002
				c-1.278,1.595-1.709,3.725-0.973,4.771C620.097,167.84,620.24,167.972,620.403,168.066L620.403,168.066z"/>
		</g>
	</g>
	<g enable-background="new    ">
		<g enable-background="new    ">
			<linearGradient id="SVGID_26_" gradientUnits="userSpaceOnUse" x1="612.9292" y1="60.5073" x2="622.522" y2="60.5073">
				<stop  offset="0" style="stop-color:#9B41EB"/>
				<stop  offset="1" style="stop-color:#FF2869"/>
			</linearGradient>
			<path fill="url(#SVGID_26_)" d="M616.042,60.699l-3.113-1.811c0.566-0.33,1.143-0.455,1.629-0.309
				c1.73,0.525,3.347,1.23,4.851,2.105l3.113,1.811c-1.501-0.875-3.116-1.581-4.847-2.105
				C617.185,60.244,616.616,60.369,616.042,60.699L616.042,60.699z"/>
		</g>
	</g>
	<g enable-background="new    ">
		<g enable-background="new    ">
			<linearGradient id="SVGID_27_" gradientUnits="userSpaceOnUse" x1="610.2583" y1="62.9663" x2="616.0425" y2="62.9663">
				<stop  offset="0" style="stop-color:#9B41EB"/>
				<stop  offset="1" style="stop-color:#FF2869"/>
			</linearGradient>
			<path fill="url(#SVGID_27_)" d="M614.159,67.044l-3.116-1.811c-0.935-0.543-1.06-2.203-0.233-3.92
				c0.518-1.091,1.311-1.959,2.12-2.426l3.113,1.811c-0.803,0.463-1.599,1.334-2.116,2.422
				C613.096,64.844,613.224,66.509,614.159,67.044L614.159,67.044z"/>
		</g>
	</g>
	<g>
		<linearGradient id="SVGID_28_" gradientUnits="userSpaceOnUse" x1="613.3745" y1="103.7935" x2="636.0112" y2="103.7935">
			<stop  offset="0" style="stop-color:#9B41EB"/>
			<stop  offset="1" style="stop-color:#FF2869"/>
		</linearGradient>
		<path fill="url(#SVGID_28_)" d="M616.042,60.699c0.573-0.33,1.143-0.455,1.633-0.309c11.602,3.516,18.287,15.16,18.336,31.939
			c0.045,16.754-6.561,36.076-18.12,52.984c-0.49,0.716-1.063,1.248-1.63,1.574c-0.807,0.473-1.599,0.508-2.127,0.014
			c-0.91-0.813-0.688-2.877,0.483-4.598c10.232-14.957,16.084-32.053,16.039-46.883c-0.045-14.854-5.963-25.16-16.23-28.26
			c-1.171-0.361-1.403-2.168-0.5-4.041C614.444,62.033,615.24,61.162,616.042,60.699z"/>
	</g>
	<g enable-background="new    ">
		<g>
			<linearGradient id="SVGID_29_" gradientUnits="userSpaceOnUse" x1="618.811" y1="31.8696" x2="637.7974" y2="31.8696">
				<stop  offset="0" style="stop-color:#9B41EB"/>
				<stop  offset="1" style="stop-color:#FF2869"/>
			</linearGradient>
			<path fill="url(#SVGID_29_)" d="M621.924,30.908l-3.113-1.807c0.445-0.262,0.9-0.393,1.317-0.355
				c5.399,0.432,10.278,1.953,14.552,4.441L637.797,35c-4.277-2.487-9.156-4.007-14.553-4.454
				C622.829,30.518,622.374,30.647,621.924,30.908L621.924,30.908z"/>
		</g>
	</g>
	<g>
		<linearGradient id="SVGID_30_" gradientUnits="userSpaceOnUse" x1="619.2505" y1="99.3931" x2="657.7866" y2="99.3931">
			<stop  offset="0" style="stop-color:#9B41EB"/>
			<stop  offset="1" style="stop-color:#FF2869"/>
		</linearGradient>
		<path fill="url(#SVGID_30_)" d="M621.924,30.908c0.449-0.261,0.904-0.39,1.32-0.361c21.224,1.73,34.462,20.215,34.542,48.256
			c0.08,28.037-13.009,61.703-34.155,87.908c-0.414,0.508-0.876,0.904-1.328,1.161c-0.931,0.538-1.831,0.511-2.324-0.205
			c-0.736-1.046-0.306-3.176,0.973-4.771c19.5-24.135,31.554-55.178,31.484-81.002c-0.073-25.837-12.272-42.873-31.839-44.454
			c-1.278-0.111-1.727-1.745-0.997-3.635C620.086,32.527,620.994,31.446,621.924,30.908z"/>
	</g>
	<g enable-background="new    ">
		<g>
			<linearGradient id="SVGID_31_" gradientUnits="userSpaceOnUse" x1="616.1313" y1="33.1836" x2="621.9243" y2="33.1836">
				<stop  offset="0" style="stop-color:#9B41EB"/>
				<stop  offset="1" style="stop-color:#FF2869"/>
			</linearGradient>
			<path fill="url(#SVGID_31_)" d="M620.035,37.266l-3.113-1.813c-0.838-0.483-1.05-1.873-0.438-3.457
				c0.489-1.279,1.396-2.363,2.327-2.895l3.113,1.807c-0.931,0.538-1.838,1.619-2.324,2.897
				C618.989,35.386,619.197,36.783,620.035,37.266L620.035,37.266z"/>
		</g>
	</g>
	<g enable-background="new    ">
		<g enable-background="new    ">
			<linearGradient id="SVGID_32_" gradientUnits="userSpaceOnUse" x1="627.0327" y1="5.9097" x2="653.0786" y2="5.9097">
				<stop  offset="0" style="stop-color:#9B41EB"/>
				<stop  offset="1" style="stop-color:#FF2869"/>
			</linearGradient>
			<path fill="url(#SVGID_32_)" d="M630.157,4.173l-3.124-1.811c0.427-0.246,0.861-0.379,1.269-0.361
				c2.578,0.094,18.391,1.362,21.66,6.008l3.117,1.811c-6.279-3.645-13.551-5.719-21.664-6.012
				C631.011,3.798,630.577,3.927,630.157,4.173L630.157,4.173z"/>
		</g>
	</g>
	<g enable-background="new    ">
		<g>
			<linearGradient id="SVGID_33_" gradientUnits="userSpaceOnUse" x1="624.3735" y1="6.4438" x2="630.1567" y2="6.4438">
				<stop  offset="0" style="stop-color:#9B41EB"/>
				<stop  offset="1" style="stop-color:#FF2869"/>
			</linearGradient>
			<path fill="url(#SVGID_33_)" d="M628.273,10.525l-3.116-1.811c-0.807-0.476-1.039-1.803-0.466-3.367
				c0.469-1.313,1.39-2.428,2.342-2.984l3.124,1.811c-0.963,0.557-1.88,1.672-2.353,2.992
				C627.234,8.714,627.463,10.052,628.273,10.525L628.273,10.525z"/>
		</g>
	</g>
	<g>
		<linearGradient id="SVGID_34_" gradientUnits="userSpaceOnUse" x1="627.4888" y1="92.3086" x2="679.2212" y2="92.3086">
			<stop  offset="0" style="stop-color:#9B41EB"/>
			<stop  offset="1" style="stop-color:#FF2869"/>
		</linearGradient>
		<path fill="url(#SVGID_34_)" d="M630.157,4.173c0.42-0.246,0.854-0.375,1.258-0.365c29.374,1.061,47.696,25.414,47.807,63.572
			c0.098,35.762-15.565,77.537-41.907,111.777c-0.444,0.566-0.941,1.004-1.421,1.281c-0.896,0.515-1.769,0.512-2.279-0.125
			c-0.789-0.994-0.406-3.117,0.834-4.739c24.774-32.188,39.506-71.474,39.409-105.098c-0.104-35.89-17.314-58.792-44.948-59.768
			c-1.299-0.066-1.803-1.637-1.104-3.544C628.277,5.845,629.194,4.73,630.157,4.173z"/>
	</g>
</g>
</svg>
