<?xml version="1.0" encoding="utf-8"?>
<!-- Generator: Adobe Illustrator 16.0.0, SVG Export Plug-In . SVG Version: 6.00 Build 0)  -->
<!DOCTYPE svg PUBLIC "-//W3C//DTD SVG 1.1//EN" "http://www.w3.org/Graphics/SVG/1.1/DTD/svg11.dtd">
<svg version="1.1" id="Graphic" xmlns="http://www.w3.org/2000/svg" xmlns:xlink="http://www.w3.org/1999/xlink" x="0px" y="0px"
	 width="756.862px" height="794.235px" viewBox="0 0 756.862 794.235" enable-background="new 0 0 756.862 794.235"
	 xml:space="preserve">
<g>
	<g>
		<polygon fill="#8E8E8E" points="356.94,794.235 386.683,776.958 430.577,696.598 400.843,713.891 		"/>
	</g>
	<g enable-background="new    ">
		<defs>
			<path id="SVGID_1_" enable-background="new    " d="M181.36,133.599c-3.977,2.287-7.921,4.6-11.898,6.904
				c-3.469,2.025-6.946,4.043-10.414,6.043c-2.468,1.468-4.953,2.911-7.438,4.33c9.25-5.388,22.074-4.634,36.236,3.534
				l29.742-17.286C203.435,128.957,190.61,128.203,181.36,133.599z"/>
		</defs>
		<clipPath id="SVGID_2_">
			<use xlink:href="#SVGID_1_"  overflow="visible"/>
		</clipPath>
		<g clip-path="url(#SVGID_2_)">
			<path fill="#8E8E8E" d="M187.847,154.411l29.742-17.286c-14.153-8.168-26.978-8.922-36.228-3.525l-29.75,17.277
				C160.86,145.489,173.685,146.243,187.847,154.411L187.847,154.411z"/>
		</g>
	</g>
	<g enable-background="new    ">
		<defs>
			<path id="SVGID_3_" enable-background="new    " d="M564.122,790.783c9.906-5.781,19.82-11.529,29.734-17.285
				c9.143-5.298,14.809-16.598,14.857-32.604l-29.748,17.278C578.915,774.186,573.259,785.47,564.122,790.783z"/>
		</defs>
		<clipPath id="SVGID_4_">
			<use xlink:href="#SVGID_3_"  overflow="visible"/>
		</clipPath>
		<g clip-path="url(#SVGID_4_)">
			<path fill="#8E8E8E" d="M564.122,790.783l29.734-17.285c9.143-5.298,14.809-16.598,14.857-32.604l-29.748,17.278
				C578.915,774.186,573.259,785.47,564.122,790.783L564.122,790.783z"/>
		</g>
	</g>
	<g>
		<polygon fill="#8E8E8E" points="578.966,758.172 608.714,740.894 609.616,422.077 579.866,439.354 		"/>
	</g>
	<g>
		<polygon fill="#8E8E8E" points="529.101,351.449 558.858,334.155 217.588,137.125 187.847,154.411 		"/>
	</g>
	<g enable-background="new    ">
		<defs>
			<path id="SVGID_5_" enable-background="new    " d="M579.866,439.354l29.75-17.277c0.082-32.259-22.633-71.685-50.758-87.921
				l-29.758,17.294C557.228,367.686,579.948,407.103,579.866,439.354z"/>
		</defs>
		<clipPath id="SVGID_6_">
			<use xlink:href="#SVGID_5_"  overflow="visible"/>
		</clipPath>
		<g clip-path="url(#SVGID_6_)">
			<path fill="#8E8E8E" d="M579.866,439.354l29.75-17.277c0.082-32.259-22.633-71.685-50.758-87.921l-29.758,17.294
				C557.228,367.686,579.948,407.103,579.866,439.354L579.866,439.354z"/>
		</g>
	</g>
	<g>
		<linearGradient id="SVGID_7_" gradientUnits="userSpaceOnUse" x1="135.8335" y1="470.8408" x2="579.8662" y2="470.8408">
			<stop  offset="0" style="stop-color:#9B41EB"/>
			<stop  offset="1" style="stop-color:#FF2869"/>
		</linearGradient>
		<path fill="url(#SVGID_7_)" stroke="#FFFFFF" stroke-miterlimit="10" d="M187.847,154.411
			c-28.134-16.22-51.012-3.133-51.103,29.134l-0.911,318.818c-0.082,32.241,22.633,71.586,50.775,87.846l127.027,73.326
			l43.304,130.7l43.903-80.345l127.02,73.342c28.133,16.235,51.004,3.189,51.104-29.061l0.9-318.818
			c0.082-32.251-22.639-71.668-50.766-87.905L187.847,154.411z"/>
	</g>
</g>
<g>
	<path fill="#FA004B" d="M384.101,377.744c-6.049-14.827-17.278-21.584-25.079-15.093c-0.073,0.06-0.854,0.712-2.119,1.761
		c-0.653-1.602-1.047-2.568-1.095-2.684c-6.048-14.827-15.839-22.335-25.077-15.092c-7.916,6.207-9.221,23.774-3.173,38.601
		c0.046,0.112,23,56.377,23,56.377s30.296-25.21,30.37-25.271C388.728,409.853,390.147,392.571,384.101,377.744z"/>
	<g>
		<polygon fill="#FAEDD6" points="289.953,554.566 388.322,613.769 387.157,627.964 288.786,568.764 		"/>
		<polygon fill="#FAEDD6" points="254.972,548.413 273.479,559.552 272.313,573.747 253.805,562.609 		"/>
		<polygon fill="#FAEDD6" points="402.465,637.178 421.009,648.337 419.84,662.532 401.299,651.374 		"/>
	</g>
	<g>
		<polygon fill="#FA004B" points="285.574,566.83 390.374,629.901 389.207,644.097 284.407,581.026 		"/>
		<path fill="#FA004B" d="M266.528,525.574L266.528,525.574c-6.791-4.087-11.6-15.873-10.74-26.324l0.777-9.464l24.593,14.801
			l-0.778,9.463C279.521,524.501,273.319,529.662,266.528,525.574z"/>
		<path fill="#FA004B" d="M414.085,614.378L414.085,614.378c-6.791-4.087-11.601-15.875-10.742-26.327l0.779-9.463l24.593,14.801
			l-0.777,9.464C427.077,613.304,420.875,618.465,414.085,614.378z"/>
	</g>
	<path fill="#36C9A3" d="M369.579,604.987l15.316,9.217l0.973-11.844c3.223-39.196-14.65-83.301-40.116-98.627
		c-25.467-15.327-48.563,4.122-51.784,43.319l-0.974,11.844l49.175,29.596"/>
	<g>
		<polygon fill="#FAEDD6" points="238.656,550.936 435.356,669.315 434.592,678.622 237.893,560.243 		"/>
		<polygon fill="#FAEDD6" points="285.779,564.322 390.581,627.394 389.815,636.699 285.015,573.628 		"/>
		<polygon fill="#FAEDD6" points="345.4,585.228 367.166,598.324 366.401,607.634 344.634,594.534 		"/>
	</g>
	<path fill="#FA004B" d="M359.143,497.133l-6.047-3.639c0.46-5.582-1.996-11.214-5.414-13.272c-3.418-2.057-6.524,0.229-6.983,5.811
		l-6.047-3.639c0.868-10.548,7.042-15.54,13.794-11.478C355.199,474.981,360.01,486.585,359.143,497.133z"/>
	<g>
		<path fill="#FAEDD6" d="M358.035,508.672l0.395-4.807l-6.047-3.64l-0.252,3.062c-1.951-1.568-3.951-2.978-6-4.208
			c-2.046-1.234-4.08-2.251-6.093-3.068l0.252-3.063l-6.047-3.638l-0.396,4.806c-21.97-4.503-40.207,15.709-43.106,50.995
			l-1.332,16.186l52.4,31.536l0.765-9.307l-46.353-27.896l0.564-6.882c3.007-36.569,24.799-54.677,48.58-40.363
			c23.782,14.313,40.684,55.706,37.679,92.275l-0.567,6.882l-12.496-7.521l-0.765,9.306l18.544,11.16l1.331-16.186
			C391.992,569.016,378.639,529.792,358.035,508.672z"/>
		<path fill="#FAEDD6" d="M255.87,459.654l-3.104,37.774c-0.93,11.307,3.49,23.905,10.214,30.343l-1.787,21.753l-6.047-3.638
			l-0.764,9.305l18.542,11.159l0.765-9.306l-6.45-3.882l1.778-21.64c7.266,2.216,13.442-4.146,14.388-15.655l3.105-37.775
			L255.87,459.654L255.87,459.654z M277.358,512.229c-0.647,7.871-5.333,11.769-10.446,8.691
			c-5.113-3.077-8.747-11.982-8.101-19.853l0.397-4.826l15.334,9.229l0.766-9.307l-15.335-9.229l1.178-14.338l18.547,11.163
			L277.358,512.229L277.358,512.229z"/>
		<path fill="#FAEDD6" d="M403.425,548.455l-3.104,37.773c-0.945,11.512,3.65,24.357,10.579,30.683l-1.779,21.64l-6.45-3.882
			l-0.765,9.307l18.542,11.158l0.766-9.305l-6.048-3.641l1.786-21.754c7.099,1.883,13.077-4.458,14.006-15.766l3.104-37.774
			L403.425,548.455L403.425,548.455z M424.912,601.029c-0.646,7.872-5.332,11.771-10.444,8.692
			c-5.111-3.077-8.749-11.981-8.103-19.853l0.397-4.827l15.305,9.212l0.765-9.308l-15.304-9.21l1.178-14.339l18.546,11.162
			L424.912,601.029z"/>
		<path fill="#FAEDD6" d="M350.018,448.195l-1.868-4.576c-2.349-5.76-22.957-56.274-23.003-56.384
			c-3.444-8.444-4.986-18.198-4.228-26.755c0.75-8.45,3.588-15.004,7.991-18.457c9.661-7.577,20.975-1.204,28.512,15.834
			c4.366-3.463,9.745-3.578,15.178-0.309c5.544,3.337,10.484,9.797,13.909,18.192l0,0c3.425,8.393,4.922,17.714,4.223,26.248
			c-0.701,8.533-3.521,15.258-7.936,18.932c-0.072,0.062-29.133,24.243-30.37,25.272L350.018,448.195z M343.699,350.29
			c-3.612-2.173-7.459-1.932-11.147,0.962c-3.08,2.414-5.067,7.016-5.595,12.957c-0.54,6.08,0.557,13.016,3.011,19.026
			c0.111,0.275,15.673,38.419,21.131,51.799c7.158-5.954,27.815-23.145,27.96-23.265c3.131-2.605,5.128-7.373,5.625-13.419
			c0.497-6.046-0.565-12.653-2.991-18.602c-2.43-5.951-5.93-10.528-9.859-12.893c-3.929-2.365-7.814-2.232-10.945,0.373
			l-4.526,3.767l-2.959-7.253C350.659,357.014,347.296,352.455,343.699,350.29z"/>
	</g>
	<g>
		<polygon fill="#FAEDD6" points="357.899,314.725 363.946,318.364 362.008,341.94 355.962,338.301 		"/>
		<polygon fill="#FAEDD6" points="380.177,332.303 383.911,341.456 373.521,350.1 369.787,340.946 		"/>
		<polygon fill="#FAEDD6" points="341.414,308.976 349.47,328.722 344.654,332.729 336.599,312.982 		"/>
		<path fill="#FAEDD6" d="M307.313,500.382l-3.075-1.851c-6.753-4.064-11.549-15.827-10.696-26.22
			c0.854-10.393,7.042-15.542,13.793-11.478l24.593,14.8l-0.765,9.308l-24.592-14.8c-3.417-2.057-6.55,0.55-6.982,5.81
			c-0.434,5.263,1.996,11.216,5.415,13.272l3.073,1.851L307.313,500.382L307.313,500.382z"/>
		<path fill="#FAEDD6" d="M380.351,514.54l-18.445-11.101l0.765-9.305l18.445,11.1c3.418,2.059,6.552-0.551,6.983-5.811
			c0.433-5.264-1.996-11.216-5.415-13.272L324.275,451c-6.752-4.063-11.55-15.824-10.695-26.218
			c0.854-10.393,7.041-15.542,13.793-11.479l6.147,3.7l-0.764,9.308l-6.148-3.7c-3.418-2.057-6.55,0.548-6.983,5.811
			c-0.433,5.261,1.997,11.215,5.415,13.272l58.407,35.15c6.751,4.065,11.548,15.825,10.695,26.219
			C393.288,513.455,387.104,518.604,380.351,514.54z"/>
	</g>
	<g>
		<polygon fill="#36C9A3" points="257.655,376.536 265.25,395.149 260.433,399.159 252.837,380.544 		"/>
		<polygon fill="#36C9A3" points="272.835,413.764 280.429,432.378 275.615,436.386 268.02,417.771 		"/>
		<polygon fill="#36C9A3" points="279.46,389.655 283.195,398.809 273.402,406.958 269.667,397.805 		"/>
		<polygon fill="#36C9A3" points="259.871,405.951 263.604,415.103 253.811,423.252 250.076,414.1 		"/>
	</g>
	<polygon fill="#FAEDD6" points="267.232,399.855 270.968,409.009 266.069,413.084 262.336,403.93 	"/>
	<g>
		<polygon fill="#36C9A3" points="290.414,291.97 298.007,310.584 293.19,314.591 285.597,295.978 		"/>
		<polygon fill="#36C9A3" points="305.602,329.197 313.196,347.812 308.381,351.819 300.786,333.206 		"/>
		<polygon fill="#36C9A3" points="312.219,305.094 315.954,314.248 306.16,322.398 302.425,313.245 		"/>
		<polygon fill="#36C9A3" points="292.625,321.4 296.359,330.554 286.565,338.704 282.83,329.551 		"/>
	</g>
	<polygon fill="#FAEDD6" points="299.974,315.273 303.709,324.426 298.811,328.5 295.077,319.348 	"/>
	<g>
		<polygon fill="#36C9A3" points="424.076,432.002 431.673,450.617 426.856,454.625 419.261,436.009 		"/>
		<polygon fill="#36C9A3" points="439.269,469.231 446.863,487.849 442.048,491.854 434.452,473.239 		"/>
		<polygon fill="#36C9A3" points="445.882,445.122 449.613,454.275 439.822,462.425 436.088,453.272 		"/>
		<polygon fill="#36C9A3" points="426.29,461.426 430.024,470.578 420.23,478.729 416.498,469.577 		"/>
	</g>
	<polygon fill="#FAEDD6" points="433.636,455.311 437.369,464.464 432.474,468.538 428.739,459.385 	"/>
	<path fill="#FFFFFF" d="M374.441,585.775l-6.045-3.64c1.53-18.61-6.835-39.179-18.927-46.455l0.765-9.306
		C365.553,535.595,376.38,562.2,374.441,585.775z"/>
</g>
<g enable-background="new    ">
	<g enable-background="new    ">
		<g>
			<linearGradient id="SVGID_8_" gradientUnits="userSpaceOnUse" x1="49.6094" y1="107.4033" x2="70.2441" y2="107.4033">
				<stop  offset="0" style="stop-color:#9B41EB"/>
				<stop  offset="1" style="stop-color:#FF2869"/>
			</linearGradient>
			<path fill="url(#SVGID_8_)" d="M66.253,148.191l3.184-1.845c0.082-0.055,0.163-0.1,0.234-0.171c0.93-0.838,0.703-2.95-0.497-4.7
				c-10.45-15.283-16.427-32.746-16.384-47.902c0.039-12.901,4.419-22.442,12.185-26.957l-3.184,1.853
				C54.025,72.973,49.649,82.52,49.61,95.43c-0.046,15.148,5.931,32.611,16.384,47.891c1.196,1.758,1.423,3.865,0.494,4.696
				C66.417,148.084,66.334,148.145,66.253,148.191L66.253,148.191z"/>
		</g>
	</g>
	<g enable-background="new    ">
		<g>
			<linearGradient id="SVGID_9_" gradientUnits="userSpaceOnUse" x1="5.48" y1="97.6431" x2="50.1919" y2="97.6431">
				<stop  offset="0" style="stop-color:#9B41EB"/>
				<stop  offset="1" style="stop-color:#FF2869"/>
			</linearGradient>
			<path fill="url(#SVGID_9_)" d="M46.22,182.475l3.184-1.854c0.138-0.082,0.263-0.188,0.369-0.319
				c0.802-1.026,0.415-3.19-0.852-4.838C23.611,142.577,8.562,102.44,8.661,68.106c0.078-26.535,9.307-46.121,25.102-55.295
				l-3.184,1.846C14.787,23.835,5.552,43.417,5.48,69.949c-0.099,34.347,14.95,74.477,40.257,107.358
				c1.267,1.657,1.657,3.826,0.852,4.841C46.483,182.29,46.355,182.393,46.22,182.475L46.22,182.475z"/>
		</g>
	</g>
	<g enable-background="new    ">
		<g>
			<linearGradient id="SVGID_10_" gradientUnits="userSpaceOnUse" x1="27.3618" y1="104.0884" x2="64.0679" y2="104.0884">
				<stop  offset="0" style="stop-color:#9B41EB"/>
				<stop  offset="1" style="stop-color:#FF2869"/>
			</linearGradient>
			<path fill="url(#SVGID_10_)" d="M60.084,169.636l3.184-1.849c0.163-0.093,0.309-0.234,0.429-0.404
				c0.76-1.068,0.313-3.256-0.99-4.881c-19.916-24.646-32.232-56.357-32.161-82.74c0.057-19.681,6.996-34.365,18.812-41.222
				l-3.188,1.842c-11.812,6.865-18.748,21.552-18.808,41.229c-0.071,26.379,12.242,58.09,32.161,82.743
				c1.306,1.63,1.746,3.806,0.994,4.874C60.396,169.406,60.251,169.541,60.084,169.636L60.084,169.636z"/>
		</g>
	</g>
	<g enable-background="new    ">
		<g enable-background="new    ">
			<linearGradient id="SVGID_11_" gradientUnits="userSpaceOnUse" x1="57.9189" y1="59.7651" x2="67.7188" y2="59.7651">
				<stop  offset="0" style="stop-color:#9B41EB"/>
				<stop  offset="1" style="stop-color:#FF2869"/>
			</linearGradient>
			<path fill="url(#SVGID_11_)" d="M64.539,59.961l3.18-1.849c-0.579-0.337-1.167-0.465-1.665-0.316
				c-1.768,0.536-3.418,1.256-4.955,2.151l-3.18,1.849c1.534-0.895,3.184-1.615,4.952-2.151
				C63.371,59.496,63.953,59.624,64.539,59.961L64.539,59.961z"/>
		</g>
	</g>
	<g enable-background="new    ">
		<g enable-background="new    ">
			<linearGradient id="SVGID_12_" gradientUnits="userSpaceOnUse" x1="64.5386" y1="62.2769" x2="70.4468" y2="62.2769">
				<stop  offset="0" style="stop-color:#9B41EB"/>
				<stop  offset="1" style="stop-color:#FF2869"/>
			</linearGradient>
			<path fill="url(#SVGID_12_)" d="M66.462,66.442l3.184-1.849c0.955-0.554,1.083-2.25,0.238-4.004
				c-0.529-1.114-1.338-2.001-2.165-2.477l-3.18,1.849c0.82,0.472,1.633,1.363,2.162,2.474
				C67.548,64.195,67.417,65.896,66.462,66.442L66.462,66.442z"/>
		</g>
	</g>
	<g>
		<linearGradient id="SVGID_13_" gradientUnits="userSpaceOnUse" x1="44.1406" y1="103.9819" x2="67.2642" y2="103.9819">
			<stop  offset="0" style="stop-color:#9B41EB"/>
			<stop  offset="1" style="stop-color:#FF2869"/>
		</linearGradient>
		<path fill="url(#SVGID_13_)" d="M64.539,59.961c-0.585-0.337-1.167-0.465-1.668-0.316c-11.852,3.592-18.681,15.486-18.73,32.626
			c-0.046,17.114,6.701,36.853,18.51,54.124c0.5,0.731,1.086,1.274,1.665,1.607c0.824,0.483,1.633,0.519,2.172,0.015
			c0.93-0.831,0.703-2.938-0.494-4.696c-10.453-15.279-16.43-32.742-16.384-47.891c0.046-15.174,6.091-25.702,16.579-28.868
			c1.196-0.369,1.434-2.215,0.511-4.128C66.171,61.324,65.358,60.433,64.539,59.961z"/>
	</g>
	<g enable-background="new    ">
		<g>
			<linearGradient id="SVGID_14_" gradientUnits="userSpaceOnUse" x1="42.3159" y1="30.5117" x2="61.71" y2="30.5117">
				<stop  offset="0" style="stop-color:#9B41EB"/>
				<stop  offset="1" style="stop-color:#FF2869"/>
			</linearGradient>
			<path fill="url(#SVGID_14_)" d="M58.53,29.528l3.18-1.846c-0.455-0.266-0.919-0.401-1.345-0.362
				c-5.516,0.44-10.499,1.995-14.865,4.536l-3.184,1.853c4.37-2.541,9.353-4.092,14.865-4.55
				C57.607,29.131,58.072,29.262,58.53,29.528L58.53,29.528z"/>
		</g>
	</g>
	<g>
		<linearGradient id="SVGID_15_" gradientUnits="userSpaceOnUse" x1="21.896" y1="99.4863" x2="61.2617" y2="99.4863">
			<stop  offset="0" style="stop-color:#9B41EB"/>
			<stop  offset="1" style="stop-color:#FF2869"/>
		</linearGradient>
		<path fill="url(#SVGID_15_)" d="M58.53,29.528c-0.458-0.266-0.923-0.397-1.349-0.369c-21.679,1.768-35.203,20.65-35.284,49.294
			c-0.082,28.639,13.289,63.03,34.89,89.799c0.422,0.518,0.895,0.922,1.356,1.186c0.951,0.55,1.871,0.521,2.375-0.209
			c0.752-1.068,0.313-3.244-0.994-4.874c-19.919-24.653-32.232-56.364-32.161-82.743c0.075-26.393,12.537-43.795,32.523-45.411
			c1.306-0.113,1.764-1.782,1.019-3.712C60.407,31.183,59.481,30.079,58.53,29.528z"/>
	</g>
	<g enable-background="new    ">
		<g>
			<linearGradient id="SVGID_16_" gradientUnits="userSpaceOnUse" x1="58.5298" y1="31.8535" x2="64.4468" y2="31.8535">
				<stop  offset="0" style="stop-color:#9B41EB"/>
				<stop  offset="1" style="stop-color:#FF2869"/>
			</linearGradient>
			<path fill="url(#SVGID_16_)" d="M60.46,36.024l3.18-1.853c0.855-0.493,1.072-1.913,0.447-3.531
				c-0.5-1.306-1.427-2.414-2.378-2.957l-3.18,1.846c0.951,0.55,1.877,1.654,2.375,2.96C61.529,34.104,61.316,35.53,60.46,36.024
				L60.46,36.024z"/>
		</g>
	</g>
	<g enable-background="new    ">
		<g enable-background="new    ">
			<linearGradient id="SVGID_17_" gradientUnits="userSpaceOnUse" x1="26.7061" y1="3.9937" x2="53.312" y2="3.9937">
				<stop  offset="0" style="stop-color:#9B41EB"/>
				<stop  offset="1" style="stop-color:#FF2869"/>
			</linearGradient>
			<path fill="url(#SVGID_17_)" d="M50.121,2.22l3.191-1.849c-0.437-0.252-0.88-0.387-1.295-0.369
				C49.383,0.097,33.229,1.393,29.89,6.138l-3.184,1.849c6.414-3.723,13.842-5.842,22.13-6.14
				C49.248,1.836,49.691,1.968,50.121,2.22L50.121,2.22z"/>
		</g>
	</g>
	<g enable-background="new    ">
		<g>
			<linearGradient id="SVGID_18_" gradientUnits="userSpaceOnUse" x1="50.1211" y1="4.5391" x2="56.0283" y2="4.5391">
				<stop  offset="0" style="stop-color:#9B41EB"/>
				<stop  offset="1" style="stop-color:#FF2869"/>
			</linearGradient>
			<path fill="url(#SVGID_18_)" d="M52.045,8.708l3.184-1.849c0.824-0.486,1.062-1.842,0.476-3.439
				c-0.479-1.342-1.419-2.481-2.392-3.049L50.121,2.22c0.983,0.568,1.92,1.707,2.403,3.056C53.106,6.859,52.872,8.225,52.045,8.708
				L52.045,8.708z"/>
		</g>
	</g>
	<g>
		<linearGradient id="SVGID_19_" gradientUnits="userSpaceOnUse" x1="0" y1="92.25" x2="52.8457" y2="92.25">
			<stop  offset="0" style="stop-color:#9B41EB"/>
			<stop  offset="1" style="stop-color:#FF2869"/>
		</linearGradient>
		<path fill="url(#SVGID_19_)" d="M50.121,2.22c-0.43-0.252-0.873-0.383-1.285-0.373C18.83,2.93,0.114,27.807,0,66.786
			c-0.1,36.531,15.901,79.205,42.809,114.179c0.454,0.579,0.962,1.026,1.452,1.311c0.916,0.525,1.807,0.521,2.328-0.128
			c0.806-1.015,0.416-3.184-0.852-4.841C20.431,144.425,5.381,104.295,5.48,69.949C5.587,33.287,23.167,9.894,51.396,8.896
			c1.327-0.067,1.842-1.672,1.128-3.621C52.042,3.927,51.104,2.788,50.121,2.22z"/>
	</g>
</g>
<g enable-background="new    ">
	<g enable-background="new    ">
		<g enable-background="new    ">
			<linearGradient id="SVGID_20_" gradientUnits="userSpaceOnUse" x1="683.6182" y1="453.8521" x2="691.9307" y2="453.8521">
				<stop  offset="0" style="stop-color:#9B41EB"/>
				<stop  offset="1" style="stop-color:#FF2869"/>
			</linearGradient>
			<path fill="url(#SVGID_20_)" d="M688.584,453.751l3.347-1.947c-1.447,0.847-3.004,1.521-4.664,2.025
				c-0.111,0.026-0.213,0.071-0.302,0.123l-3.347,1.948c0.094-0.061,0.193-0.098,0.303-0.135
				C685.585,455.266,687.14,454.594,688.584,453.751L688.584,453.751z"/>
		</g>
	</g>
	<g enable-background="new    ">
		<g>
			<linearGradient id="SVGID_21_" gradientUnits="userSpaceOnUse" x1="704.418" y1="512.2305" x2="724.8379" y2="512.2305">
				<stop  offset="0" style="stop-color:#9B41EB"/>
				<stop  offset="1" style="stop-color:#FF2869"/>
			</linearGradient>
			<path fill="url(#SVGID_21_)" d="M721.491,510.298l3.347-1.94c-4.917,2.851-10.45,4.758-16.543,5.627
				c-0.197,0.022-0.373,0.089-0.529,0.179l-3.348,1.94c0.157-0.09,0.336-0.149,0.53-0.176
				C711.045,515.063,716.578,513.148,721.491,510.298L721.491,510.298z"/>
		</g>
	</g>
	<g>
		<g enable-background="new    ">
			<linearGradient id="SVGID_22_" gradientUnits="userSpaceOnUse" x1="689.9648" y1="482.5635" x2="708.3281" y2="482.5635">
				<stop  offset="0" style="stop-color:#9B41EB"/>
				<stop  offset="1" style="stop-color:#FF2869"/>
			</linearGradient>
			<path fill="url(#SVGID_22_)" d="M704.985,481.241l3.343-1.948c-4.238,2.467-9.066,3.97-14.405,4.403
				c-0.228,0.025-0.433,0.082-0.608,0.187l-3.35,1.951c0.179-0.104,0.388-0.172,0.611-0.194
				C695.916,485.203,700.747,483.696,704.985,481.241L704.985,481.241z"/>
		</g>
	</g>
	<g enable-background="new    ">
		<g enable-background="new    ">
			<linearGradient id="SVGID_23_" gradientUnits="userSpaceOnUse" x1="683.8975" y1="369.0186" x2="689.2891" y2="369.0186">
				<stop  offset="0" style="stop-color:#9B41EB"/>
				<stop  offset="1" style="stop-color:#FF2869"/>
			</linearGradient>
			<path fill="url(#SVGID_23_)" d="M685.942,370.188l3.347-1.947c-0.75-0.429-1.492-0.519-2.044-0.201l-3.348,1.943
				C684.45,369.658,685.192,369.755,685.942,370.188L685.942,370.188z"/>
		</g>
	</g>
	<g enable-background="new    ">
		<defs>
			<path id="SVGID_24_" enable-background="new    " d="M692.673,460.75c0.057-0.022,0.12-0.063,0.168-0.093
				c1.063-0.619,2.123-1.235,3.183-1.847c9.224-5.358,14.432-16.671,14.469-31.982c0.053-18.002-7.04-38.743-19.457-56.891
				c-0.519-0.761-1.134-1.343-1.746-1.697l-3.347,1.947c0.612,0.351,1.231,0.93,1.746,1.694
				c12.417,18.14,19.514,38.892,19.461,56.89C707.108,444.08,701.9,455.389,692.673,460.75z"/>
		</defs>
		<linearGradient id="SVGID_25_" gradientUnits="userSpaceOnUse" x1="685.9424" y1="414.4951" x2="710.4922" y2="414.4951">
			<stop  offset="0" style="stop-color:#9B41EB"/>
			<stop  offset="1" style="stop-color:#FF2869"/>
		</linearGradient>
		<use xlink:href="#SVGID_24_"  overflow="visible" fill="url(#SVGID_25_)"/>
		<clipPath id="SVGID_26_">
			<use xlink:href="#SVGID_24_"  overflow="visible"/>
		</clipPath>
		<g clip-path="url(#SVGID_26_)">
			<linearGradient id="SVGID_27_" gradientUnits="userSpaceOnUse" x1="685.9424" y1="414.4951" x2="710.4922" y2="414.4951">
				<stop  offset="0" style="stop-color:#9B41EB"/>
				<stop  offset="1" style="stop-color:#FF2869"/>
			</linearGradient>
			<path fill="url(#SVGID_27_)" d="M692.673,460.75l3.351-1.939c9.224-5.358,14.432-16.671,14.469-31.982
				c0.053-18.002-7.04-38.743-19.457-56.891c-0.519-0.761-1.134-1.343-1.746-1.697l-3.347,1.947c0.612,0.351,1.231,0.93,1.746,1.694
				c12.417,18.14,19.514,38.892,19.461,56.89C707.108,444.08,701.9,455.389,692.673,460.75L692.673,460.75z"/>
		</g>
	</g>
	<g>
		<linearGradient id="SVGID_28_" gradientUnits="userSpaceOnUse" x1="682.7871" y1="416.4453" x2="707.1494" y2="416.4453">
			<stop  offset="0" style="stop-color:#9B41EB"/>
			<stop  offset="1" style="stop-color:#FF2869"/>
		</linearGradient>
		<path fill="url(#SVGID_28_)" d="M685.942,370.188c-0.865-0.5-1.716-0.548-2.283-0.029c-0.974,0.896-0.746,3.104,0.512,4.947
			c10.995,16.058,17.277,34.414,17.229,50.35c-0.045,15.938-6.422,26.976-17.479,30.311c-1.262,0.377-1.512,2.31-0.541,4.32
			c0.548,1.172,1.406,2.123,2.271,2.619c0.608,0.354,1.224,0.489,1.754,0.328c12.499-3.764,19.696-16.24,19.744-34.262
			c0.053-17.998-7.044-38.75-19.461-56.89C687.174,371.117,686.555,370.538,685.942,370.188z"/>
	</g>
	<g enable-background="new    ">
		<g enable-background="new    ">
			<linearGradient id="SVGID_29_" gradientUnits="userSpaceOnUse" x1="690.3682" y1="344.418" x2="695.7627" y2="344.418">
				<stop  offset="0" style="stop-color:#9B41EB"/>
				<stop  offset="1" style="stop-color:#FF2869"/>
			</linearGradient>
			<path fill="url(#SVGID_29_)" d="M692.42,345.59l3.343-1.948c-0.758-0.437-1.504-0.522-2.052-0.201l-3.343,1.947
				C690.912,345.063,691.658,345.149,692.42,345.59L692.42,345.59z"/>
		</g>
	</g>
	<g enable-background="new    ">
		<g>
			<linearGradient id="SVGID_30_" gradientUnits="userSpaceOnUse" x1="692.4199" y1="415.9561" x2="733.8555" y2="415.9561">
				<stop  offset="0" style="stop-color:#9B41EB"/>
				<stop  offset="1" style="stop-color:#FF2869"/>
			</linearGradient>
			<path fill="url(#SVGID_30_)" d="M709.037,488.271l3.347-1.948c13.48-7.831,21.409-24.572,21.472-47.029
				c0.083-30.112-13.969-66.277-36.668-94.394c-0.447-0.553-0.939-0.974-1.425-1.258l-3.343,1.948
				c0.484,0.279,0.978,0.701,1.425,1.253c22.695,28.113,36.75,64.289,36.661,94.395C730.445,463.69,722.521,480.435,709.037,488.271
				L709.037,488.271z"/>
		</g>
	</g>
	<g>
		<linearGradient id="SVGID_31_" gradientUnits="userSpaceOnUse" x1="689.123" y1="419.1191" x2="730.5059" y2="419.1191">
			<stop  offset="0" style="stop-color:#9B41EB"/>
			<stop  offset="1" style="stop-color:#FF2869"/>
		</linearGradient>
		<path fill="url(#SVGID_31_)" d="M692.42,345.59c-1-0.582-1.97-0.538-2.508,0.22c-0.806,1.119-0.324,3.41,1.045,5.126
			c20.924,25.912,33.881,59.241,33.803,86.984c-0.074,27.729-13.182,46.011-34.184,47.72c-1.376,0.123-1.865,1.865-1.074,3.906
			c0.522,1.369,1.492,2.519,2.492,3.097c0.485,0.284,0.981,0.43,1.437,0.399c22.781-1.869,36.993-21.703,37.075-51.805
			c0.089-30.105-13.966-66.281-36.661-94.395C693.397,346.291,692.904,345.869,692.42,345.59z"/>
	</g>
	<g enable-background="new    ">
		<g enable-background="new    ">
			<linearGradient id="SVGID_32_" gradientUnits="userSpaceOnUse" x1="699.3438" y1="325.9922" x2="704.7393" y2="325.9922">
				<stop  offset="0" style="stop-color:#9B41EB"/>
				<stop  offset="1" style="stop-color:#FF2869"/>
			</linearGradient>
			<path fill="url(#SVGID_32_)" d="M701.393,327.162l3.347-1.944c-0.761-0.439-1.507-0.521-2.052-0.205l-3.344,1.944
				C699.889,326.644,700.632,326.718,701.393,327.162L701.393,327.162z"/>
		</g>
	</g>
	<g enable-background="new    ">
		<g>
			<linearGradient id="SVGID_33_" gradientUnits="userSpaceOnUse" x1="701.3926" y1="421.2651" x2="756.8623" y2="421.2651">
				<stop  offset="0" style="stop-color:#9B41EB"/>
				<stop  offset="1" style="stop-color:#FF2869"/>
			</linearGradient>
			<path fill="url(#SVGID_33_)" d="M725.584,517.313l3.344-1.948c17.685-10.274,27.852-32.127,27.934-61.759
				c0.119-40.985-19.338-89.72-50.779-127.216c-0.425-0.519-0.892-0.91-1.343-1.172l-3.347,1.944
				c0.455,0.265,0.922,0.656,1.347,1.164c31.441,37.5,50.891,86.242,50.779,127.216C753.433,485.181,743.27,507.029,725.584,517.313
				L725.584,517.313z"/>
		</g>
	</g>
	<g>
		<linearGradient id="SVGID_34_" gradientUnits="userSpaceOnUse" x1="698.5049" y1="425.04" x2="753.5186" y2="425.04">
			<stop  offset="0" style="stop-color:#9B41EB"/>
			<stop  offset="1" style="stop-color:#FF2869"/>
		</linearGradient>
		<path fill="url(#SVGID_34_)" d="M701.393,327.162c-1.026-0.59-2.025-0.537-2.545,0.279c-0.753,1.187-0.224,3.492,1.168,5.164
			c29.557,35.254,47.854,81.078,47.746,119.616c-0.104,36.097-16.11,59.912-42.813,63.706c-1.354,0.18-1.765,1.989-0.929,4.029
			c0.537,1.31,1.48,2.396,2.436,2.952c0.516,0.302,1.053,0.447,1.53,0.392c28.393-4.029,45.421-29.355,45.533-67.759
			c0.111-40.974-19.338-89.716-50.779-127.216C702.314,327.818,701.848,327.427,701.393,327.162z"/>
	</g>
</g>
</svg>
