<?xml version="1.0" encoding="utf-8"?>
<!-- Generator: Adobe Illustrator 16.0.0, SVG Export Plug-In . SVG Version: 6.00 Build 0)  -->
<!DOCTYPE svg PUBLIC "-//W3C//DTD SVG 1.1//EN" "http://www.w3.org/Graphics/SVG/1.1/DTD/svg11.dtd">
<svg version="1.1" id="Capa_1" xmlns="http://www.w3.org/2000/svg" xmlns:xlink="http://www.w3.org/1999/xlink" x="0px" y="0px"
	 width="173.828px" height="224.585px" viewBox="0 0 173.828 224.585" enable-background="new 0 0 173.828 224.585"
	 xml:space="preserve">
<path fill="#9B41EB" d="M168.945,86.716c0-45.195-36.727-81.833-82.031-81.833S4.883,41.521,4.883,86.716
	c0,19.592,6.905,37.573,18.415,51.661h-0.006l63.622,81.351l63.318-80.924h-0.049C161.904,124.652,168.945,106.503,168.945,86.716z"
	/>
<path fill="#FFFFFF" d="M102.117,57.248c-5.988,0-11.389,2.604-15.203,6.779c-3.814-4.174-9.215-6.779-15.204-6.779
	c-11.56,0-20.929,9.702-20.929,21.67c0,20.174,36.133,39.854,36.133,39.854s36.133-19.68,36.133-39.854
	C123.047,66.95,113.678,57.248,102.117,57.248z"/>
<path d="M19.446,141.384l63.622,81.351c0.925,1.185,2.344,1.875,3.846,1.875l0,0c1.502,0,2.92-0.69,3.846-1.875l63.318-80.923
	c0.1-0.127,0.191-0.258,0.277-0.393c12.563-15.403,19.473-34.803,19.473-54.705c0-10.26-1.779-20.305-5.29-29.856
	c-0.931-2.531-3.737-3.829-6.269-2.899c-2.53,0.93-3.828,3.736-2.898,6.268c3.113,8.468,4.691,17.38,4.691,26.487
	c0,17.846-6.267,35.24-17.641,48.972c-0.156,0.189-0.299,0.393-0.424,0.602l-59.084,75.514L27.27,135.539
	c-0.063-0.086-0.125-0.168-0.191-0.25C15.913,121.623,9.766,104.373,9.766,86.716c0-42.431,34.606-76.95,77.146-76.95
	c20.643,0,40.037,8.027,54.615,22.602c1.906,1.907,4.998,1.907,6.904,0c1.906-1.907,1.906-4.999,0-6.905
	C132.012,9.042,110.163,0,86.914,0C38.99,0,0,38.9,0,86.716c0,19.829,6.881,39.204,19.379,54.581
	C19.4,141.326,19.423,141.355,19.446,141.384z"/>
<path d="M82.912,46.441c0.924,1.494,2.521,2.315,4.157,2.315c0.876,0,1.764-0.236,2.563-0.73c2.293-1.418,3.002-4.427,1.584-6.721
	L90.9,40.794c-1.436-2.284-4.448-2.974-6.732-1.54c-2.283,1.434-2.973,4.447-1.539,6.731L82.912,46.441z"/>
<path d="M86.914,57.466c-4.386-3.28-9.725-5.101-15.204-5.101c-14.231,0-25.812,11.912-25.812,26.553
	c0,9.896,6.677,20.413,19.845,31.261c9.286,7.648,18.45,12.671,18.835,12.881c0.729,0.396,1.531,0.595,2.335,0.595
	c0.803,0,1.606-0.198,2.336-0.595c0.385-0.21,9.549-5.23,18.835-12.881c13.168-10.848,19.846-21.366,19.846-31.261
	c0-14.641-11.58-26.553-25.813-26.553C96.639,52.365,91.3,54.186,86.914,57.466z M118.164,78.918
	c0,13.077-20.746,28.031-31.25,34.235c-10.506-6.204-31.25-21.159-31.25-34.235c0-9.256,7.198-16.787,16.046-16.787
	c4.421,0,8.541,1.843,11.599,5.19c0.926,1.012,2.233,1.589,3.604,1.589s2.681-0.577,3.604-1.589c3.059-3.347,7.179-5.19,11.599-5.19
	C110.966,62.131,118.164,69.662,118.164,78.918z"/>
</svg>
