<?xml version="1.0" encoding="utf-8"?>
<!-- Generator: Adobe Illustrator 16.0.0, SVG Export Plug-In . SVG Version: 6.00 Build 0)  -->
<!DOCTYPE svg PUBLIC "-//W3C//DTD SVG 1.1//EN" "http://www.w3.org/Graphics/SVG/1.1/DTD/svg11.dtd">
<svg version="1.1" id="Capa_1" xmlns="http://www.w3.org/2000/svg" xmlns:xlink="http://www.w3.org/1999/xlink" x="0px" y="0px"
	 width="173.828px" height="224.585px" viewBox="213.086 11.024 173.828 224.585"
	 enable-background="new 213.086 11.024 173.828 224.585" xml:space="preserve">
<path fill="#FF2869" d="M382.031,97.716c0-45.195-36.727-81.833-82.031-81.833s-82.031,36.638-82.031,81.833
	c0,19.592,6.905,37.573,18.415,51.661h-0.006L300,230.727l63.318-80.924h-0.048C374.99,135.652,382.031,117.504,382.031,97.716z"/>
<path fill="#FFFFFF" d="M315.203,68.248c-5.988,0-11.389,2.604-15.203,6.779c-3.815-4.174-9.215-6.779-15.204-6.779
	c-11.559,0-20.929,9.702-20.929,21.67c0,20.174,36.133,39.854,36.133,39.854s36.133-19.68,36.133-39.854
	C336.133,77.95,326.763,68.248,315.203,68.248z"/>
<path d="M232.532,152.385l63.622,81.35c0.925,1.184,2.344,1.875,3.846,1.875h0c1.502,0,2.92-0.691,3.846-1.875l63.318-80.923
	c0.1-0.127,0.191-0.258,0.277-0.393c12.563-15.403,19.473-34.803,19.473-54.703c0-10.26-1.779-20.305-5.29-29.856
	c-0.931-2.531-3.737-3.829-6.268-2.899c-2.531,0.93-3.829,3.736-2.899,6.268c3.113,8.468,4.691,17.38,4.691,26.487
	c0,17.846-6.265,35.238-17.639,48.972c-0.158,0.191-0.299,0.392-0.424,0.6l-59.085,75.515l-59.645-76.265
	c-0.061-0.085-0.124-0.168-0.191-0.25c-11.165-13.666-17.313-30.916-17.313-48.571c0-42.431,34.608-76.95,77.148-76.95
	c20.641,0,40.037,8.027,54.616,22.602c1.907,1.907,4.999,1.907,6.905,0s1.906-4.999,0-6.905C345.098,20.042,323.249,11,300,11
	c-47.924,0-86.914,38.9-86.914,86.716c0,19.829,6.881,39.204,19.379,54.581C232.487,152.326,232.509,152.355,232.532,152.385z"/>
<path d="M365.752,57.441c0.924,1.494,2.521,2.315,4.157,2.315c0.876,0,1.764-0.236,2.563-0.73c2.293-1.418,3.003-4.427,1.585-6.721
	l-0.317-0.511c-1.435-2.284-4.448-2.974-6.732-1.54c-2.283,1.434-2.973,4.447-1.539,6.731L365.752,57.441z"/>
<path d="M300,68.466c-4.386-3.28-9.724-5.101-15.204-5.101c-14.232,0-25.812,11.912-25.812,26.553
	c0,9.896,6.677,20.413,19.845,31.261c9.286,7.649,18.45,12.671,18.835,12.881c0.728,0.397,1.532,0.595,2.335,0.595
	s1.607-0.198,2.336-0.595c0.385-0.21,9.549-5.231,18.835-12.881c13.168-10.848,19.845-21.366,19.845-31.261
	c0-14.641-11.579-26.553-25.813-26.553C309.725,63.365,304.386,65.186,300,68.466z M331.25,89.918
	c0,13.077-20.746,28.031-31.25,34.235c-10.506-6.205-31.25-21.159-31.25-34.235c0-9.256,7.198-16.787,16.046-16.787
	c4.421,0,8.541,1.843,11.599,5.19c0.925,1.012,2.233,1.589,3.604,1.589s2.68-0.577,3.604-1.589c3.059-3.347,7.179-5.19,11.599-5.19
	C324.052,73.131,331.25,80.662,331.25,89.918z"/>
</svg>
